<?xml version="1.0" standalone="no"?>
<!DOCTYPE svg PUBLIC "-//W3C//DTD SVG 20010904//EN"
 "http://www.w3.org/TR/2001/REC-SVG-20010904/DTD/svg10.dtd">
<svg version="1.0" xmlns="http://www.w3.org/2000/svg"
 width="1098.000000pt" height="1098.000000pt" viewBox="0 0 1098.000000 1098.000000"
 preserveAspectRatio="xMidYMid meet">
<metadata>
Created by potrace 1.11, written by Peter Selinger 2001-2013
</metadata>
<g transform="translate(0.000000,1098.000000) scale(0.100000,-0.100000)"
fill="#000000" stroke="none">
<path d="M5212 10956 c4 -5 3 -15 -3 -23 -9 -10 -8 -17 2 -30 13 -16 12 -17
-3 -4 -16 12 -22 9 -19 -11 0 -5 -10 -8 -23 -8 -13 0 -29 -7 -36 -15 -9 -11
-16 -12 -25 -5 -10 8 -18 4 -34 -16 -12 -15 -21 -22 -21 -15 0 6 -5 11 -11 11
-5 0 -8 -4 -5 -9 7 -11 -22 -23 -36 -14 -7 4 -8 1 -3 -7 6 -10 4 -12 -9 -7
-10 4 -15 3 -11 -3 6 -9 -9 -15 -29 -11 -5 1 -3 -6 5 -15 8 -10 9 -15 2 -11
-18 11 -42 -3 -36 -20 4 -11 2 -14 -5 -9 -20 12 -14 -2 11 -24 12 -12 23 -25
23 -31 1 -5 2 -10 4 -11 6 -9 5 -46 -2 -42 -11 7 -10 -3 3 -28 8 -16 8 -19 -1
-13 -8 5 -11 3 -8 -6 3 -8 11 -13 17 -11 7 1 10 -2 6 -8 -3 -5 -14 -10 -23
-11 -14 0 -13 -2 3 -9 11 -5 14 -9 6 -9 -11 -1 -11 -4 0 -18 10 -11 10 -14 2
-9 -7 4 -13 3 -13 -3 0 -5 6 -12 13 -14 10 -4 10 -6 0 -6 -19 -1 -15 -29 5
-34 16 -4 16 -5 0 -6 -21 -1 -24 -27 -5 -34 10 -4 10 -6 0 -6 -7 -1 -13 -8
-13 -16 0 -8 6 -15 13 -15 7 0 8 -3 2 -8 -12 -9 -14 -162 -2 -155 5 3 4 -4 -2
-15 -13 -25 -14 -35 -2 -27 6 3 7 -6 2 -22 -4 -16 -6 -38 -5 -50 1 -13 -3 -20
-11 -16 -7 2 -16 -1 -21 -8 -5 -8 -3 -10 6 -4 9 5 11 4 6 -4 -6 -9 -11 -9 -21
-1 -9 8 -15 8 -20 0 -3 -5 -3 -10 0 -10 3 0 0 -6 -7 -14 -7 -8 -16 -12 -19
-10 -3 2 -6 -3 -6 -11 0 -8 4 -12 9 -9 4 3 8 0 8 -5 0 -15 -30 -14 -30 2 0 7
-4 6 -10 -4 -8 -13 -18 -15 -50 -9 -22 4 -40 5 -40 1 0 -3 -5 1 -10 9 -5 8
-10 10 -10 4 0 -6 -7 -11 -15 -11 -8 0 -15 4 -15 8 0 4 -7 10 -16 13 -10 4
-13 2 -8 -6 5 -8 -2 -9 -25 -5 -18 4 -41 2 -52 -3 -15 -9 -19 -7 -20 7 0 10
-3 13 -5 6 -4 -8 -13 -9 -30 -3 -13 5 -24 6 -24 1 0 -4 -20 -5 -45 -1 -30 5
-45 3 -45 -4 0 -6 -5 -4 -10 4 -8 12 -10 12 -10 1 0 -11 -5 -10 -24 3 -16 10
-27 12 -31 5 -5 -7 -11 -6 -21 2 -11 9 -14 8 -14 -2 0 -11 -2 -11 -10 1 -9 13
-10 13 -10 0 0 -9 -3 -11 -8 -5 -6 9 -27 12 -34 5 -8 -6 -56 -6 -52 1 2 4 -4
8 -13 8 -10 1 -51 2 -90 4 -46 2 -73 -1 -73 -8 0 -5 -5 -3 -10 5 -8 13 -10 12
-10 -4 0 -16 -2 -16 -20 5 -17 21 -19 21 -13 4 6 -18 5 -18 -10 -6 -12 9 -17
10 -17 2 0 -7 -4 -9 -10 -6 -5 3 -10 1 -10 -5 0 -7 -7 -10 -15 -6 -8 3 -14 2
-14 -2 3 -19 -2 -25 -11 -12 -8 13 -10 12 -10 -2 0 -10 -7 -18 -15 -18 -9 0
-18 -7 -21 -15 -5 -12 -10 -12 -27 -3 -20 10 -21 10 -8 -6 12 -15 12 -17 0
-14 -8 2 -13 -3 -11 -10 1 -8 -2 -11 -8 -7 -12 7 -54 -4 -46 -13 7 -6 -36 -38
-46 -34 -5 1 -8 -2 -8 -8 0 -5 -5 -10 -11 -10 -5 0 -7 6 -3 13 4 6 -3 2 -15
-11 -12 -12 -26 -20 -30 -17 -5 2 -15 -3 -22 -13 -13 -16 -13 -16 6 -2 19 14
19 14 6 -3 -11 -14 -16 -15 -29 -5 -13 11 -15 10 -9 -4 4 -13 1 -16 -14 -13
-18 4 -19 2 -7 -12 10 -13 10 -15 0 -9 -7 4 -20 2 -29 -6 -9 -7 -19 -13 -22
-13 -3 0 -5 -3 -4 -6 1 -4 -7 -5 -17 -2 -14 4 -20 0 -20 -11 0 -9 -8 -16 -20
-16 -11 0 -23 -6 -26 -14 -3 -8 -15 -13 -26 -11 -17 4 -18 2 -6 -12 12 -15 11
-15 -9 -4 -19 10 -22 9 -17 -4 4 -9 3 -15 -2 -14 -21 4 -35 -2 -29 -11 3 -6
-1 -7 -9 -4 -9 4 -18 -1 -22 -10 -3 -9 -10 -13 -15 -10 -5 3 -9 0 -9 -6 0 -6
-4 -8 -10 -5 -5 3 -10 -1 -10 -11 0 -14 -2 -15 -17 -3 -11 10 -14 10 -9 2 4
-8 2 -13 -4 -13 -6 0 -8 -5 -4 -12 4 -6 3 -8 -4 -4 -6 3 -14 1 -18 -5 -4 -8
-9 -7 -15 2 -6 10 -9 7 -9 -11 0 -18 -3 -21 -9 -12 -7 11 -9 11 -14 -2 -4 -9
-10 -16 -14 -15 -20 3 -34 -2 -28 -11 4 -6 -7 -13 -24 -16 -17 -4 -28 -10 -25
-15 5 -8 -10 -13 -30 -10 -5 1 -6 -6 -2 -15 5 -14 4 -15 -8 -5 -10 9 -15 8
-19 -2 -3 -8 -19 -17 -36 -20 -22 -5 -29 -11 -25 -22 5 -11 2 -14 -12 -8 -13
5 -15 3 -9 -8 7 -11 6 -12 -6 -2 -17 14 -39 0 -39 -24 0 -7 -4 -13 -9 -13 -10
0 -7 -38 4 -48 2 -3 -3 -11 -13 -19 -9 -8 -12 -12 -6 -9 13 6 27 -18 16 -28
-10 -11 -13 -48 -2 -41 5 3 10 2 10 -4 0 -5 -5 -13 -11 -16 -6 -5 -4 -12 8
-22 10 -8 12 -11 4 -7 -10 5 -13 3 -8 -8 3 -9 0 -21 -6 -28 -9 -10 -9 -11 1
-6 6 4 12 4 12 -1 -1 -17 -28 -42 -52 -48 -15 -4 -29 -14 -33 -23 -5 -14 -7
-14 -15 -2 -8 13 -10 12 -10 -3 0 -10 -4 -15 -10 -12 -13 8 -52 -19 -42 -31 4
-4 -1 -2 -10 5 -15 11 -18 11 -18 -2 0 -8 -6 -14 -12 -13 -7 0 -14 -3 -15 -8
-1 -5 -7 -13 -15 -17 -11 -7 -10 -9 1 -9 11 0 10 -4 -5 -16 -10 -8 -14 -13 -7
-10 6 4 14 2 18 -4 3 -5 1 -10 -6 -10 -9 0 -9 -3 0 -14 8 -10 9 -16 1 -21 -6
-3 -7 -12 -3 -18 4 -6 8 -20 8 -29 1 -13 -2 -15 -10 -8 -9 8 -11 4 -8 -13 4
-18 -3 -25 -31 -38 -21 -10 -33 -12 -30 -5 3 6 -4 0 -16 -14 -12 -14 -19 -18
-15 -10 4 8 -3 4 -15 -10 -12 -14 -19 -19 -15 -12 3 6 1 12 -4 12 -6 0 -11 -4
-11 -10 0 -5 -9 -10 -19 -10 -11 0 -23 -5 -27 -12 -5 -7 -3 -8 6 -3 9 5 11 4
6 -4 -6 -9 -11 -9 -24 1 -13 11 -14 11 -7 -1 6 -11 4 -13 -8 -8 -12 4 -14 2
-10 -10 5 -12 2 -15 -10 -10 -22 8 -54 -22 -35 -34 11 -7 6 -12 -12 -11 -5 0
-4 -56 0 -68 1 -3 1 -9 0 -15 -9 -38 -4 -103 10 -119 8 -11 10 -16 3 -12 -7 4
-13 2 -13 -3 0 -6 6 -11 13 -12 6 0 3 -4 -8 -9 -11 -5 -14 -9 -7 -9 9 -1 10
-6 3 -18 -7 -13 -5 -23 7 -37 9 -11 11 -16 5 -12 -16 9 -16 1 -3 -25 8 -14 7
-19 -2 -19 -9 0 -9 -3 2 -10 8 -5 11 -10 7 -10 -4 0 -2 -10 4 -22 11 -21 11
-22 -5 -9 -15 13 -16 12 -7 -13 7 -17 7 -26 1 -26 -18 0 -10 -20 8 -21 10 0
12 -3 5 -6 -18 -6 -16 -33 1 -33 8 0 17 -7 20 -16 3 -8 2 -13 -2 -10 -4 2 -7
-9 -7 -25 0 -16 5 -29 10 -29 6 0 3 -5 -5 -10 -13 -9 -13 -10 0 -10 9 0 11 -3
5 -8 -16 -12 -12 -86 5 -94 12 -5 11 -7 -4 -7 -15 -1 -16 -4 -6 -16 7 -8 8
-15 3 -15 -5 0 -9 -10 -7 -22 1 -13 3 -27 3 -31 1 -5 7 -5 14 -2 6 4 4 0 -6
-8 -14 -11 -15 -16 -5 -20 8 -3 9 -6 2 -6 -8 -1 -9 -12 -4 -36 5 -24 4 -35 -4
-36 -6 0 -2 -4 9 -9 13 -6 15 -9 5 -9 -12 -1 -15 -15 -15 -68 0 -38 5 -71 10
-75 6 -5 4 -8 -5 -8 -13 0 -13 -1 0 -10 8 -5 11 -10 5 -10 -11 0 -11 -92 0
-109 3 -6 1 -11 -6 -11 -7 0 -4 -7 7 -15 13 -11 14 -13 3 -9 -13 4 -15 0 -11
-23 2 -15 9 -33 14 -40 6 -7 3 -15 -8 -21 -13 -7 -14 -13 -5 -31 9 -16 9 -21
-1 -21 -6 0 -3 -7 8 -15 18 -14 18 -15 0 -9 -16 6 -17 4 -7 -13 8 -17 7 -22
-5 -27 -13 -5 -14 -9 -4 -21 7 -8 10 -31 8 -50 -3 -29 -1 -35 11 -30 12 4 11
1 -2 -9 -14 -10 -15 -15 -5 -19 7 -3 8 -6 2 -6 -8 -1 -9 -14 -4 -41 4 -22 5
-40 1 -40 -3 0 1 -5 9 -10 11 -7 11 -10 2 -10 -8 0 -10 -5 -5 -12 12 -20 12
-37 1 -44 -6 -4 -5 -9 3 -14 10 -7 10 -11 0 -24 -11 -13 -11 -16 0 -16 12 0
12 -2 1 -9 -17 -11 -17 -21 0 -32 10 -7 10 -9 -2 -9 -13 0 -13 -1 0 -10 11 -7
11 -10 2 -10 -8 0 -10 -5 -5 -12 11 -19 11 -58 0 -65 -5 -3 -3 -9 4 -14 11 -7
11 -9 -1 -9 -13 0 -13 -1 0 -10 13 -9 13 -11 0 -20 -13 -9 -13 -10 0 -10 13 0
13 -1 0 -10 -13 -9 -13 -10 0 -10 12 0 12 -2 1 -9 -8 -5 -9 -11 -3 -15 8 -5
10 -41 2 -41 -1 0 -3 -8 -5 -17 -2 -10 2 -18 8 -18 7 0 6 -5 -3 -10 -13 -9
-13 -11 0 -20 11 -7 11 -10 2 -10 -8 0 -10 -5 -5 -12 10 -17 13 -39 4 -33 -4
2 -8 -2 -8 -10 0 -8 4 -12 8 -10 9 6 6 -16 -4 -32 -5 -8 -3 -13 5 -13 10 0 10
-2 0 -9 -8 -4 -14 -12 -14 -16 0 -4 6 -12 14 -16 10 -7 10 -9 -2 -9 -13 0 -13
-1 0 -10 11 -7 11 -10 2 -10 -8 0 -10 -5 -5 -12 10 -17 13 -39 4 -33 -4 2 -8
-2 -8 -10 0 -8 3 -12 7 -10 3 2 6 -5 6 -15 0 -10 -4 -16 -8 -14 -4 3 -8 1 -8
-5 0 -5 6 -12 13 -14 9 -4 8 -8 -3 -16 -13 -10 -13 -11 0 -11 13 0 13 -1 0
-10 -13 -9 -13 -10 0 -10 12 0 12 -2 1 -9 -8 -5 -9 -11 -3 -15 8 -5 10 -41 2
-41 -1 0 -3 -8 -5 -17 -2 -10 2 -18 8 -18 7 0 6 -5 -3 -10 -13 -9 -13 -11 0
-20 11 -7 11 -10 2 -10 -8 0 -10 -5 -5 -12 10 -17 13 -39 4 -33 -4 2 -8 -2 -8
-10 0 -8 4 -12 8 -10 9 6 6 -16 -4 -32 -5 -8 -3 -13 5 -13 10 0 10 -2 0 -9
-17 -11 -17 -21 0 -32 10 -7 10 -9 -2 -9 -13 0 -13 -1 0 -10 11 -7 11 -10 2
-10 -8 0 -10 -5 -5 -12 11 -19 11 -58 0 -65 -5 -3 -3 -9 4 -14 11 -7 11 -9 -1
-9 -13 0 -13 -1 0 -10 13 -9 13 -11 0 -20 -13 -9 -13 -10 0 -10 13 0 13 -1 0
-10 -13 -9 -13 -10 0 -10 12 0 12 -2 1 -9 -8 -5 -9 -11 -3 -15 8 -5 10 -41 2
-41 -1 0 -3 -8 -5 -17 -2 -10 2 -18 8 -18 7 0 6 -5 -3 -10 -13 -9 -13 -11 0
-20 11 -7 11 -10 2 -10 -8 0 -10 -5 -5 -12 10 -17 13 -39 4 -33 -4 2 -8 -2 -8
-10 0 -8 4 -12 8 -10 9 6 6 -16 -4 -32 -5 -8 -3 -13 5 -13 10 0 10 -2 0 -9
-17 -11 -17 -21 0 -32 10 -7 10 -9 -2 -9 -13 0 -13 -1 0 -10 11 -7 11 -10 2
-10 -8 0 -10 -5 -5 -12 10 -17 13 -39 4 -33 -4 2 -8 -2 -8 -10 0 -8 3 -12 7
-10 3 2 6 -5 6 -15 0 -10 -4 -16 -8 -14 -4 3 -8 1 -8 -5 0 -5 6 -12 13 -14 9
-4 8 -8 -3 -16 -13 -10 -13 -11 0 -11 13 0 13 -1 0 -10 -13 -9 -13 -10 0 -10
12 0 12 -2 1 -9 -8 -5 -9 -11 -3 -15 8 -5 10 -41 2 -41 -1 0 -3 -8 -5 -17 -2
-10 2 -18 8 -18 7 0 6 -5 -3 -10 -13 -9 -13 -11 0 -20 11 -7 11 -10 2 -10 -8
0 -10 -5 -5 -12 10 -17 13 -39 4 -33 -4 2 -8 -2 -8 -10 0 -8 4 -12 8 -10 9 6
6 -16 -4 -32 -5 -8 -3 -13 5 -13 10 0 10 -2 0 -9 -17 -11 -17 -21 0 -32 10 -7
10 -9 -2 -9 -13 0 -13 -1 0 -10 11 -7 11 -10 2 -10 -8 0 -10 -5 -5 -12 11 -19
11 -58 0 -65 -5 -3 -3 -9 4 -14 11 -7 11 -9 -1 -9 -13 0 -13 -1 0 -10 13 -9
13 -11 0 -20 -13 -9 -13 -10 0 -10 13 0 13 -1 0 -10 -13 -9 -13 -10 0 -10 12
0 12 -2 1 -9 -8 -5 -9 -11 -3 -15 8 -5 10 -41 2 -41 -1 0 -3 -8 -5 -17 -2 -10
2 -18 8 -18 7 0 6 -5 -3 -10 -13 -9 -13 -11 0 -20 11 -7 11 -10 2 -10 -8 0
-10 -5 -5 -12 10 -17 13 -39 4 -33 -4 2 -8 -2 -8 -10 0 -8 4 -12 8 -10 9 6 6
-16 -4 -32 -5 -8 -3 -13 5 -13 10 0 10 -2 0 -9 -17 -11 -17 -21 0 -32 10 -7
10 -9 -2 -9 -13 0 -13 -1 0 -10 11 -7 11 -10 2 -10 -8 0 -10 -5 -5 -12 10 -17
13 -39 4 -33 -4 2 -8 -2 -8 -10 0 -8 3 -12 7 -10 3 2 6 -5 6 -15 0 -10 -4 -16
-8 -14 -4 3 -8 1 -8 -5 0 -5 6 -12 13 -14 9 -4 8 -8 -3 -16 -13 -10 -13 -11 0
-11 13 0 13 -1 0 -10 -13 -9 -13 -10 0 -10 12 0 12 -2 1 -9 -8 -5 -9 -11 -3
-15 8 -5 10 -41 2 -41 -1 0 -3 -8 -5 -17 -2 -10 2 -18 8 -18 7 0 6 -5 -3 -10
-13 -9 -13 -11 0 -20 11 -7 11 -10 2 -10 -8 0 -10 -5 -5 -12 10 -17 13 -39 4
-33 -4 2 -8 -2 -8 -10 0 -8 4 -12 8 -10 9 6 6 -16 -4 -32 -5 -8 -3 -13 5 -13
10 0 10 -2 0 -9 -17 -11 -17 -21 0 -32 10 -7 10 -9 -2 -9 -13 0 -13 -1 0 -10
11 -7 11 -10 2 -10 -8 0 -10 -5 -5 -12 11 -19 11 -58 0 -65 -5 -3 -3 -9 4 -14
11 -7 11 -9 -1 -9 -13 0 -13 -1 0 -10 13 -9 13 -11 0 -20 -13 -9 -13 -10 0
-10 13 0 13 -1 0 -10 -13 -9 -13 -10 0 -10 12 0 12 -2 1 -9 -8 -5 -9 -11 -3
-15 8 -5 10 -41 2 -41 -1 0 -3 -8 -5 -17 -2 -10 2 -18 8 -18 7 0 6 -5 -3 -10
-13 -9 -13 -11 0 -20 11 -7 11 -10 2 -10 -8 0 -10 -5 -5 -13 10 -16 13 -38 4
-32 -4 2 -8 -2 -8 -10 0 -8 4 -12 8 -10 9 6 6 -16 -4 -32 -5 -8 -3 -13 5 -13
10 0 10 -2 0 -9 -17 -11 -17 -21 0 -32 10 -7 10 -9 -2 -9 -13 0 -13 -1 0 -10
11 -7 11 -10 2 -10 -8 0 -10 -5 -5 -12 10 -17 13 -39 4 -33 -4 2 -8 -2 -8 -10
0 -8 3 -12 7 -10 3 2 6 -5 6 -15 0 -10 -4 -16 -8 -14 -4 3 -8 0 -8 -5 0 -6 6
-11 13 -11 8 0 7 -4 -3 -10 -13 -9 -13 -10 0 -10 13 0 13 -1 0 -10 -13 -9 -13
-10 0 -10 13 0 13 -1 0 -10 -13 -9 -13 -10 0 -10 12 0 12 -2 2 -9 -17 -11 -17
-21 0 -32 10 -7 10 -9 -2 -9 -13 0 -13 -1 0 -10 12 -8 12 -10 1 -10 -11 0 -11
-3 0 -17 12 -15 12 -16 -1 -8 -13 8 -13 7 -1 -8 11 -14 11 -17 0 -17 -11 0
-11 -2 1 -10 11 -7 11 -10 2 -10 -8 0 -10 -5 -5 -12 10 -17 13 -39 4 -33 -4 2
-8 -2 -8 -10 0 -8 4 -12 8 -10 9 6 6 -16 -4 -33 -5 -7 -3 -12 3 -12 8 0 8 -6
0 -20 -8 -15 -8 -20 2 -20 9 0 9 -3 -2 -10 -13 -9 -13 -10 0 -10 9 0 11 -3 5
-8 -13 -9 -18 -35 -5 -27 5 3 10 -1 10 -9 0 -9 -5 -16 -11 -16 -5 0 -7 -5 -4
-10 4 -6 9 -8 13 -6 11 7 8 -168 -3 -176 -6 -5 -4 -8 5 -8 12 0 12 -2 1 -9
-10 -7 -11 -13 -2 -30 10 -18 9 -21 -6 -21 -12 0 -14 -3 -6 -8 16 -10 24 -82
9 -82 -6 0 -5 -4 2 -9 11 -6 10 -10 -5 -15 -17 -7 -17 -8 1 -22 11 -8 14 -14
7 -14 -8 0 -9 -5 -2 -17 6 -12 5 -20 -6 -29 -13 -9 -13 -13 -3 -19 9 -6 11 -4
5 6 -5 8 -4 11 1 6 12 -11 11 -40 -1 -49 -6 -5 -4 -8 5 -8 12 0 12 -2 1 -9
-10 -7 -11 -13 -2 -30 10 -18 9 -21 -6 -21 -12 0 -14 -3 -6 -8 16 -10 24 -82
9 -82 -6 0 -5 -4 2 -9 11 -6 10 -10 -5 -15 -17 -7 -17 -8 1 -22 11 -8 14 -14
7 -14 -8 0 -9 -5 -2 -17 6 -12 5 -20 -6 -29 -13 -9 -13 -13 -3 -19 9 -6 11 -4
5 6 -5 8 -4 11 1 6 12 -11 11 -40 -1 -49 -6 -5 -4 -8 5 -8 12 0 12 -2 1 -9
-10 -7 -11 -13 -2 -30 10 -18 9 -21 -6 -21 -12 0 -14 -3 -6 -8 16 -10 24 -82
9 -82 -6 0 -5 -4 2 -9 11 -6 10 -10 -5 -15 -17 -7 -17 -8 1 -22 11 -8 14 -14
7 -14 -8 0 -9 -5 -2 -17 6 -12 5 -20 -6 -29 -13 -9 -13 -13 -3 -19 9 -6 11 -4
5 6 -5 8 -4 11 1 6 12 -11 11 -40 -1 -49 -6 -5 -4 -8 5 -8 12 0 12 -2 1 -9
-10 -7 -11 -13 -2 -30 10 -18 9 -21 -6 -21 -12 0 -14 -3 -6 -8 16 -10 24 -82
9 -82 -6 0 -4 -5 4 -10 13 -9 13 -10 0 -10 -13 0 -13 -1 0 -10 11 -7 11 -10 2
-10 -7 0 -10 -4 -7 -10 3 -5 1 -10 -5 -10 -6 0 -8 -5 -4 -12 5 -9 2 -9 -9 1
-15 12 -17 11 -17 -4 0 -10 -3 -15 -7 -12 -3 4 -13 1 -21 -6 -13 -10 -15 -9
-8 3 4 9 1 8 -7 -2 -16 -21 -32 -24 -21 -5 6 9 5 9 -8 0 -8 -7 -19 -9 -23 -5
-5 4 -5 1 -1 -5 5 -9 0 -13 -13 -13 -22 0 -41 -27 -34 -48 3 -7 -1 -20 -9 -29
-7 -9 -8 -14 -2 -10 7 4 14 -3 17 -18 2 -14 0 -28 -6 -32 -6 -4 -7 -1 -2 7 5
9 4 11 -4 6 -6 -4 -8 -13 -4 -19 12 -20 12 -41 0 -56 -8 -10 -8 -13 -1 -8 7 4
14 -3 17 -18 2 -14 0 -28 -6 -32 -6 -4 -7 -1 -2 7 5 8 4 11 -3 6 -15 -9 -3
-38 12 -29 6 3 3 -3 -7 -14 -9 -11 -14 -22 -11 -25 5 -6 12 -32 13 -55 1 -7 8
-13 17 -13 8 0 13 -4 9 -9 -3 -5 4 -12 15 -16 11 -3 20 -13 20 -21 0 -8 9 -14
21 -14 11 0 17 -4 14 -10 -3 -6 4 -10 16 -10 12 0 19 -3 15 -7 -4 -4 8 -15 26
-26 18 -10 25 -16 15 -13 -11 3 -15 2 -12 -4 3 -6 15 -10 25 -10 11 0 29 -13
42 -30 12 -16 28 -30 35 -30 7 0 13 -4 13 -10 0 -5 5 -10 11 -10 15 0 39 -26
32 -34 -4 -3 1 -6 10 -6 9 0 17 -4 17 -10 0 -5 9 -10 20 -10 18 0 25 -10 21
-33 0 -4 8 -7 19 -7 18 0 25 -11 21 -33 -1 -4 9 -2 21 4 21 11 22 11 9 -5 -12
-14 -12 -16 4 -10 13 5 16 4 11 -4 -4 -8 -1 -12 10 -12 10 0 15 -3 11 -6 -9
-9 19 -34 37 -34 9 0 16 -6 16 -14 0 -7 8 -20 18 -27 16 -13 16 -13 2 6 -14
19 -14 20 6 2 11 -9 24 -14 28 -10 4 4 4 0 0 -10 -5 -14 -2 -16 12 -10 17 6
17 5 5 -10 -12 -15 -12 -17 4 -11 14 6 16 4 10 -6 -6 -10 -3 -12 13 -8 12 4
20 3 17 -2 -2 -4 9 -18 25 -30 16 -12 27 -26 25 -31 -3 -4 4 -6 16 -4 12 2 19
2 16 -2 -4 -3 -2 -14 4 -25 8 -16 13 -17 25 -7 8 7 14 8 12 3 -4 -13 39 -54
48 -46 4 4 5 -2 2 -13 -4 -16 0 -21 15 -22 11 -1 27 -10 36 -19 15 -17 15 -17
-4 -3 -18 13 -19 13 -7 -3 8 -10 17 -17 20 -16 21 2 32 -3 26 -14 -5 -8 -2 -9
12 -4 10 4 15 4 11 0 -11 -11 13 -33 29 -27 8 3 14 2 13 -3 -4 -23 3 -34 22
-34 11 0 17 -4 14 -10 -3 -5 0 -10 8 -10 18 0 77 -53 77 -71 0 -11 2 -11 10 1
8 13 10 13 10 -1 0 -9 8 -23 18 -30 16 -13 16 -13 2 5 -15 19 -14 19 11 2 15
-9 29 -26 32 -37 3 -12 11 -17 21 -13 11 4 16 1 16 -11 0 -9 4 -13 10 -10 5 3
10 -2 10 -11 0 -10 3 -14 7 -10 4 3 13 -4 20 -16 7 -13 12 -17 13 -10 0 6 5
12 10 12 6 0 9 -5 8 -11 -2 -6 3 -14 11 -17 8 -2 11 0 8 5 -3 5 3 9 13 9 10 0
16 -4 14 -8 -3 -4 -1 -8 5 -8 5 0 11 5 13 11 3 9 9 9 26 0 19 -10 21 -9 15 5
-5 13 -3 15 8 8 23 -14 42 -14 30 0 -7 8 -5 12 9 12 10 0 18 -3 18 -6 -2 -18
4 -23 12 -10 8 12 12 13 19 2 7 -11 9 -11 13 0 6 14 66 16 87 4 5 -4 14 2 20
11 8 14 13 15 19 5 9 -14 45 -5 36 9 -3 5 2 6 10 3 9 -3 13 -11 9 -17 -3 -6
-1 -7 5 -3 7 4 12 15 12 24 0 13 2 13 15 -4 8 -10 15 -14 15 -7 0 8 9 9 29 3
18 -5 31 -4 33 1 2 5 13 11 26 14 12 2 20 0 18 -4 -3 -4 11 -7 31 -5 19 1 39
7 43 14 5 8 13 9 21 4 19 -11 40 -14 34 -4 -3 4 2 10 10 14 10 3 15 -1 15 -11
0 -14 2 -14 15 3 8 10 15 13 15 7 0 -9 7 -10 23 -4 12 5 32 5 45 0 13 -5 21
-5 18 0 -3 5 1 11 9 15 8 3 15 2 15 -2 0 -4 11 -7 24 -7 16 0 21 4 15 11 -10
12 26 13 37 1 12 -12 26 -8 18 5 -6 10 -5 10 7 1 12 -9 18 -10 27 -1 8 8 15 8
27 -2 13 -11 14 -10 8 6 -6 16 -4 17 9 7 8 -7 18 -10 22 -6 4 4 11 1 16 -7 7
-10 10 -11 10 -2 0 6 9 12 20 12 11 0 20 5 20 11 0 5 5 7 10 4 6 -4 8 -12 4
-18 -3 -7 2 -3 10 7 12 15 16 16 16 5 0 -12 2 -12 9 0 6 9 10 10 12 2 3 -7 12
-9 22 -6 9 4 14 12 10 19 -4 7 -1 7 9 -1 8 -7 18 -10 21 -6 4 3 7 0 7 -8 1
-11 2 -11 10 1 6 12 23 15 64 13 35 -1 56 2 56 9 0 6 7 5 17 -3 11 -10 14 -10
9 -1 -4 6 -2 12 3 12 6 0 11 -4 11 -8 0 -5 7 -9 15 -9 10 0 12 4 5 12 -6 7 -3
11 10 11 10 0 16 -4 14 -8 -3 -4 -1 -8 5 -8 5 0 11 6 14 13 3 9 7 9 20 -2 11
-9 17 -10 17 -2 0 7 11 9 27 6 16 -2 31 1 35 8 6 9 10 9 17 -2 6 -9 11 -10 15
-2 4 6 13 11 19 11 7 0 6 -4 -3 -10 -9 -6 -10 -10 -3 -10 6 0 18 7 26 15 8 8
17 11 21 8 3 -4 17 -7 31 -8 19 0 24 3 20 15 -4 12 -2 11 8 -2 12 -15 14 -15
25 0 10 15 12 15 22 2 9 -12 13 -12 17 -2 4 10 8 10 21 0 13 -11 14 -11 7 2
-7 13 -6 13 7 2 11 -9 17 -10 20 -2 2 7 18 13 35 14 19 1 29 -2 26 -8 -4 -6 1
-6 13 -2 10 4 24 9 29 10 6 1 15 5 22 9 6 4 15 2 19 -4 4 -8 9 -7 15 2 5 9 9
10 9 3 0 -7 11 -11 24 -10 18 1 22 4 14 13 -7 9 -3 10 21 3 17 -5 31 -6 31 -2
0 4 5 0 10 -8 8 -12 10 -12 10 5 0 15 2 17 9 6 7 -10 9 -11 13 -1 2 8 12 14
21 16 9 1 15 -2 12 -6 -3 -5 8 -8 24 -8 19 1 28 5 24 12 -4 6 0 5 9 -2 12 -9
18 -10 23 -2 4 7 16 10 26 7 11 -3 19 -2 19 1 0 4 28 8 63 8 65 1 84 5 104 17
9 6 11 3 7 -7 -7 -19 3 -20 36 -1 18 9 29 10 37 3 9 -7 13 -7 13 3 0 10 3 10
12 1 9 -9 15 -7 25 6 8 9 11 11 8 4 -10 -18 26 -12 43 8 10 13 11 12 5 -5 -6
-18 -5 -18 10 -6 14 11 17 11 17 0 0 -11 2 -11 10 1 9 13 10 13 10 0 0 -10 3
-11 8 -4 8 12 25 14 85 14 29 -1 37 2 31 12 -6 10 -5 10 7 2 14 -11 45 -11 56
0 3 3 15 1 26 -5 14 -8 18 -8 13 0 -10 15 27 14 43 -2 10 -10 11 -8 5 6 -5 15
-3 16 20 7 16 -6 25 -6 21 -1 -3 5 -1 12 5 16 5 3 10 1 10 -6 0 -8 3 -9 13 0
8 6 17 8 21 4 13 -13 66 -10 66 4 0 8 5 11 12 7 16 -10 88 -11 82 -2 -3 5 2 8
11 8 10 0 14 -5 10 -12 -4 -7 1 -4 9 6 10 13 16 15 16 7 0 -11 3 -11 15 -1 9
7 18 10 22 6 3 -3 0 -6 -7 -6 -7 0 -11 -3 -8 -6 3 -3 23 2 43 10 35 15 36 15
24 -1 -13 -14 -12 -15 6 -6 11 5 35 9 52 8 22 -2 31 1 26 9 -4 6 1 5 10 -3 14
-11 18 -11 23 3 3 9 10 13 15 10 5 -3 7 -10 4 -15 -4 -5 -1 -9 4 -9 6 0 11 4
11 10 0 5 7 7 15 4 9 -4 15 0 15 7 0 12 2 12 9 0 6 -9 11 -10 15 -2 4 6 12 11
17 11 6 0 7 -6 3 -12 -5 -9 -2 -9 9 1 12 9 17 10 17 2 0 -7 5 -9 10 -6 6 4 8
10 6 14 -3 4 4 8 15 8 11 1 17 -1 15 -5 -3 -4 4 -8 15 -8 13 0 18 5 14 15 -4
10 1 9 16 -5 12 -10 19 -14 16 -8 -4 7 0 15 9 18 10 4 13 2 8 -7 -5 -8 -2 -7
9 2 11 8 17 9 17 3 0 -6 7 -9 15 -6 8 4 12 11 9 16 -4 6 1 6 13 -1 14 -7 24
-7 33 2 7 7 10 7 7 2 -3 -6 3 -11 14 -11 10 0 19 4 19 9 0 5 6 5 13 -1 10 -9
19 -7 37 5 17 12 21 13 15 2 -7 -12 -6 -12 7 -1 10 8 19 9 22 3 7 -11 32 -9
43 4 4 4 2 5 -6 0 -10 -5 -12 -4 -7 3 5 9 13 9 27 2 13 -8 19 -7 19 0 0 8 6 8
20 0 14 -8 20 -8 20 0 0 7 7 7 21 -1 12 -6 19 -7 15 -1 -3 5 3 12 14 15 11 3
18 1 15 -3 -6 -10 21 -7 31 3 11 11 26 8 19 -3 -3 -6 1 -7 9 -4 9 3 13 11 9
18 -4 6 1 5 10 -3 15 -12 17 -11 17 5 0 16 2 17 10 4 8 -13 13 -13 31 -2 11 8
18 9 14 3 -8 -14 8 -14 22 0 8 8 13 8 17 0 4 -6 12 -11 17 -11 6 0 7 5 3 11
-5 8 -1 8 13 0 14 -7 23 -7 32 2 9 9 14 8 21 -3 8 -12 10 -12 10 -1 0 8 7 11
20 8 12 -3 18 -1 14 5 -4 6 1 8 15 3 14 -4 21 -2 21 6 0 7 7 5 16 -7 8 -10 13
-14 10 -8 -3 7 1 15 10 18 10 4 13 2 8 -7 -5 -8 -2 -7 9 2 14 11 17 11 17 0 0
-8 6 -6 16 7 8 10 13 14 10 8 -3 -7 1 -15 10 -18 8 -3 12 -2 9 4 -4 6 8 10 27
10 18 0 40 5 48 10 10 6 21 4 34 -8 11 -9 16 -12 13 -5 -4 6 -3 14 3 18 5 3
10 0 10 -7 0 -9 3 -9 10 2 9 13 10 13 10 0 0 -9 3 -11 8 -5 8 12 32 13 50 2 7
-5 14 -2 18 6 4 12 12 13 36 7 24 -7 29 -6 24 5 -3 9 0 12 9 8 8 -3 13 -8 10
-13 -2 -4 7 -5 20 -2 14 2 25 8 25 12 0 4 16 6 35 5 21 -2 35 2 36 9 0 6 4 2
9 -9 7 -17 9 -17 9 -3 1 11 6 15 16 12 8 -4 15 -1 15 6 0 7 7 10 16 6 14 -5
15 -4 5 8 -8 10 -9 15 -1 18 7 2 8 11 2 28 -7 19 -5 28 7 38 9 7 11 11 4 8 -6
-4 -14 -2 -18 4 -3 5 0 10 7 11 7 0 4 4 -7 9 -18 8 -18 9 -2 9 15 1 16 5 7 21
-8 15 -8 20 2 20 9 0 9 3 -2 10 -13 9 -13 10 0 10 11 1 10 4 -4 15 -17 13 -18
15 -3 15 9 0 17 7 17 16 0 8 -4 13 -8 10 -4 -2 -8 4 -8 15 0 10 3 19 7 19 4 0
4 15 -1 33 -4 18 -3 43 1 55 6 17 4 24 -12 32 -10 6 -25 8 -32 4 -6 -4 -9 -4
-5 1 4 4 3 14 -3 22 -9 10 -15 11 -26 1 -11 -9 -13 -8 -11 3 2 8 -3 13 -9 11
-7 -1 -13 3 -13 10 0 6 -3 8 -7 5 -3 -4 -17 3 -30 15 -22 21 -24 21 -18 3 6
-18 5 -18 -7 -4 -19 23 -57 41 -70 33 -7 -4 -8 -3 -4 4 4 7 0 12 -11 13 -16 0
-16 1 2 9 11 5 14 9 7 9 -7 1 -10 6 -7 11 3 6 1 10 -5 10 -6 0 -8 5 -5 10 4 6
11 8 16 5 5 -3 6 1 3 9 -3 9 -11 13 -18 10 -6 -3 -2 2 8 10 16 13 17 16 4 16
-17 0 -19 23 -3 37 4 4 5 2 0 -6 -6 -10 -4 -12 4 -7 7 5 9 12 3 19 -5 7 -12
21 -16 31 -5 16 -4 17 9 6 13 -11 14 -10 9 4 -3 9 -10 16 -16 16 -5 0 -6 5 -3
10 4 6 11 8 16 5 5 -3 6 1 3 9 -3 9 -11 13 -18 10 -6 -3 -2 2 8 10 16 13 17
16 4 16 -17 0 -19 23 -3 37 4 4 5 2 0 -6 -6 -10 -4 -12 4 -7 7 5 9 12 3 19
-17 22 -21 46 -10 53 6 4 8 3 4 -4 -3 -6 -2 -13 3 -16 5 -4 8 2 6 11 -2 10 -4
22 -4 26 -1 5 -5 6 -10 2 -5 -3 -13 0 -17 6 -4 7 -3 9 3 6 6 -4 16 0 22 7 9
11 9 16 0 22 -8 5 -9 3 -4 -6 5 -9 4 -11 -4 -6 -6 4 -8 13 -4 19 4 7 6 20 5
30 -2 9 2 17 9 17 7 0 4 7 -7 16 -10 8 -14 13 -8 10 7 -3 15 1 18 10 3 8 2 12
-4 9 -12 -8 -13 45 -1 64 10 16 3 43 -9 36 -5 -3 -12 0 -16 6 -4 7 -3 9 3 6 6
-4 16 0 22 7 9 11 9 16 0 22 -8 5 -9 3 -4 -6 5 -9 4 -11 -4 -6 -6 4 -8 13 -4
19 4 7 6 20 5 30 -2 9 2 17 9 17 7 0 4 7 -7 16 -10 8 -14 13 -8 10 7 -3 15 1
18 10 3 8 2 12 -4 9 -12 -8 -13 45 -1 64 10 16 3 43 -9 36 -5 -3 -12 0 -16 6
-4 7 -3 9 3 6 6 -4 16 0 22 7 9 11 9 16 0 22 -8 5 -9 3 -4 -6 5 -9 4 -11 -4
-6 -6 4 -8 13 -4 19 4 7 6 20 5 30 -2 9 2 17 9 17 7 0 4 7 -7 16 -10 8 -14 13
-8 10 7 -3 15 1 18 10 3 8 2 12 -4 9 -12 -8 -13 45 -1 64 10 16 3 43 -9 36 -5
-3 -12 0 -16 6 -4 7 -3 9 3 6 6 -4 16 0 22 7 9 11 9 16 0 22 -8 5 -9 3 -4 -6
5 -9 4 -11 -4 -6 -6 4 -8 13 -4 19 4 7 6 20 5 30 -2 9 2 17 9 17 7 0 4 7 -7
16 -10 8 -14 13 -8 10 7 -3 15 1 18 10 3 8 2 12 -4 9 -12 -8 -13 45 -1 64 10
16 3 43 -9 36 -5 -3 -12 0 -16 6 -4 7 -3 9 3 6 6 -4 16 0 22 7 9 11 9 16 0 22
-8 5 -9 3 -4 -6 5 -9 4 -11 -4 -6 -6 4 -8 13 -4 19 4 7 6 20 5 30 -2 9 2 17 9
17 7 0 4 7 -7 16 -10 8 -14 13 -8 10 7 -3 15 1 18 10 3 8 2 12 -4 9 -12 -8
-13 45 -1 64 10 16 3 43 -9 36 -5 -3 -12 0 -16 6 -4 7 -3 9 3 6 6 -4 16 0 22
7 9 11 9 16 0 22 -8 5 -9 3 -4 -6 5 -9 4 -11 -4 -6 -9 6 -9 11 0 22 9 11 9 14
0 14 -7 0 -9 5 -6 10 4 6 11 8 16 5 5 -3 6 1 3 9 -3 9 -11 13 -18 10 -6 -3 -2
2 8 10 16 13 17 16 4 16 -17 0 -19 23 -3 37 4 4 5 2 0 -6 -6 -10 -4 -12 4 -7
7 5 9 12 3 19 -5 7 -12 21 -16 31 -5 16 -4 17 9 6 13 -11 14 -10 9 4 -3 9 -10
16 -16 16 -5 0 -6 5 -3 10 4 6 11 8 16 5 5 -3 6 1 3 9 -3 9 -11 13 -18 10 -6
-3 -2 2 8 10 16 13 17 16 4 16 -17 0 -19 23 -3 37 4 4 5 2 0 -6 -6 -10 -4 -12
4 -7 7 5 9 12 3 19 -5 7 -12 21 -16 31 -5 16 -4 17 9 6 13 -11 14 -10 9 4 -3
9 -10 16 -16 16 -5 0 -6 5 -3 10 4 6 11 8 16 5 5 -3 6 1 3 9 -3 9 -11 13 -18
10 -6 -3 -2 2 8 10 16 13 17 16 4 16 -17 0 -19 23 -3 37 4 4 5 2 0 -6 -6 -10
-4 -12 4 -7 7 5 9 12 3 19 -5 7 -12 21 -16 31 -5 16 -4 17 9 6 13 -11 14 -10
9 4 -3 9 -10 16 -16 16 -5 0 -6 5 -3 10 4 6 11 8 16 5 5 -3 6 1 3 9 -3 9 -11
13 -18 10 -6 -3 -2 2 8 10 16 13 17 16 4 16 -17 0 -19 23 -3 37 4 4 5 2 0 -6
-6 -10 -4 -12 4 -7 7 5 9 12 3 19 -5 7 -12 21 -16 31 -5 16 -4 17 9 6 13 -11
14 -10 9 4 -3 9 -10 16 -16 16 -5 0 -6 5 -3 10 4 6 11 8 16 5 5 -3 6 1 3 9 -3
9 -11 13 -18 10 -6 -3 -2 2 8 10 16 13 17 16 4 16 -17 0 -19 23 -3 37 4 4 5 2
0 -6 -6 -10 -4 -12 4 -7 7 5 9 12 3 19 -5 7 -12 21 -16 31 -5 16 -4 17 9 6 13
-11 14 -10 9 4 -3 9 -10 16 -16 16 -5 0 -6 5 -3 10 4 6 11 8 16 5 5 -3 6 1 3
9 -3 9 -11 13 -18 10 -6 -3 -2 2 8 10 16 13 17 16 4 16 -17 0 -19 23 -3 37 4
4 5 2 0 -6 -6 -10 -4 -12 4 -7 7 5 9 12 3 19 -5 7 -12 21 -16 31 -5 16 -4 17
9 6 13 -11 14 -10 9 4 -3 9 -10 16 -16 16 -5 0 -6 5 -3 10 4 6 11 8 16 5 5 -3
6 1 3 9 -3 9 -11 13 -18 10 -6 -3 -2 2 8 10 16 13 17 16 4 16 -17 0 -19 23 -3
37 4 4 5 2 0 -6 -6 -10 -4 -12 4 -7 7 5 9 12 3 19 -5 7 -12 21 -16 31 -5 16
-4 17 9 6 13 -11 14 -10 9 4 -3 9 -10 16 -16 16 -5 0 -6 5 -3 10 4 6 11 8 16
5 5 -3 6 1 3 9 -3 9 -11 13 -18 10 -6 -3 -2 2 8 10 16 13 17 16 4 16 -17 0
-19 23 -3 37 4 4 5 2 0 -6 -6 -10 -4 -12 4 -7 7 5 9 12 3 19 -17 22 -21 46
-10 53 6 4 8 3 4 -4 -3 -6 -2 -13 3 -16 5 -4 8 2 6 11 -2 10 -4 22 -4 26 -1 5
-5 6 -10 2 -5 -3 -13 0 -17 6 -4 7 -3 9 3 6 6 -4 16 0 22 7 9 11 9 16 0 22 -8
5 -9 3 -4 -6 5 -9 4 -11 -4 -6 -6 4 -8 13 -4 19 4 7 6 20 5 30 -2 9 2 17 9 17
7 0 4 7 -7 16 -10 8 -14 13 -8 10 7 -3 15 1 18 10 3 8 2 12 -4 9 -12 -8 -13
45 -1 64 10 16 3 43 -9 36 -5 -3 -12 0 -16 6 -4 7 -3 9 3 6 6 -4 16 0 22 7 9
11 9 16 0 22 -8 5 -9 3 -4 -6 5 -9 4 -11 -4 -6 -6 4 -8 13 -4 19 4 7 6 20 5
30 -2 9 2 17 9 17 7 0 4 7 -7 16 -10 8 -14 13 -8 10 7 -3 15 1 18 10 3 8 2 12
-4 9 -12 -8 -13 45 -1 64 10 16 3 43 -9 36 -5 -3 -12 0 -16 6 -4 7 -3 9 3 6 6
-4 16 0 22 7 9 11 9 16 0 22 -8 5 -9 3 -4 -6 5 -9 4 -11 -4 -6 -6 4 -8 13 -4
19 4 7 6 20 5 29 -2 10 2 18 9 18 7 0 4 7 -7 16 -10 8 -14 13 -8 10 7 -3 15 1
18 10 3 8 2 12 -4 9 -12 -8 -13 45 -1 64 10 16 3 43 -9 36 -5 -3 -12 0 -16 6
-4 7 -3 9 3 6 6 -4 16 0 22 7 9 11 9 16 0 22 -8 5 -9 3 -4 -6 5 -9 4 -11 -4
-6 -6 4 -8 13 -4 19 4 7 6 20 5 30 -2 9 2 17 9 17 7 0 4 7 -7 16 -10 8 -14 13
-8 10 7 -3 15 1 18 10 3 8 2 12 -4 9 -12 -8 -13 45 -1 64 10 16 3 43 -9 36 -5
-3 -12 0 -16 6 -4 7 -3 9 3 6 6 -4 16 0 22 7 9 11 9 16 0 22 -8 5 -9 3 -4 -6
5 -9 4 -11 -4 -6 -6 4 -8 13 -4 19 4 7 6 20 5 30 -2 9 2 17 9 17 7 0 4 7 -7
16 -10 8 -14 13 -8 10 7 -3 15 1 18 10 3 8 2 12 -4 9 -12 -8 -13 45 -1 64 10
16 3 43 -9 36 -5 -3 -12 0 -16 6 -4 7 -3 9 3 6 6 -4 16 0 22 7 9 11 9 16 0 22
-8 5 -9 3 -4 -6 5 -9 4 -11 -4 -6 -9 6 -9 11 0 22 9 11 9 14 0 14 -7 0 -9 5
-6 10 4 6 11 8 16 5 5 -3 6 1 3 9 -3 9 -11 13 -18 10 -6 -3 -2 2 8 10 16 13
17 16 4 16 -17 0 -19 23 -3 37 4 4 5 2 0 -6 -6 -10 -4 -12 4 -7 7 5 9 12 3 19
-5 7 -12 21 -16 31 -5 16 -4 17 9 6 13 -11 14 -10 9 4 -3 9 -10 16 -16 16 -5
0 -6 5 -3 10 4 6 11 8 16 5 5 -3 6 1 3 9 -3 9 -11 13 -18 10 -6 -3 -2 2 8 10
16 13 17 16 4 16 -17 0 -19 23 -3 37 4 4 5 2 0 -6 -6 -10 -4 -12 4 -7 7 5 9
12 3 19 -5 7 -12 21 -16 31 -5 16 -4 17 9 6 13 -11 14 -10 9 4 -3 9 -10 16
-16 16 -5 0 -6 5 -3 10 4 6 11 8 16 5 5 -3 6 1 3 9 -3 9 -11 13 -18 10 -6 -3
-2 2 8 10 16 13 17 16 4 16 -17 0 -19 23 -3 37 4 4 5 2 0 -6 -6 -10 -4 -12 4
-7 7 5 9 12 3 19 -5 7 -12 21 -16 31 -5 16 -4 17 9 6 13 -11 14 -10 9 4 -3 9
-10 16 -16 16 -5 0 -6 5 -3 10 4 6 11 8 16 5 5 -3 6 1 3 9 -3 9 -11 13 -18 10
-6 -3 -2 2 8 10 16 13 17 16 4 16 -17 0 -19 23 -3 37 4 4 5 2 0 -6 -6 -10 -4
-12 4 -7 7 5 9 12 3 19 -5 7 -12 21 -16 31 -5 16 -4 17 9 6 13 -11 14 -10 9 4
-3 9 -10 16 -16 16 -5 0 -6 5 -3 10 4 6 11 8 16 5 5 -3 6 1 3 9 -3 9 -11 13
-18 10 -6 -3 -2 2 8 10 16 13 17 16 4 16 -17 0 -19 23 -3 37 4 4 5 2 0 -6 -6
-10 -4 -12 4 -7 7 5 9 12 3 19 -5 7 -12 21 -16 31 -5 16 -4 17 9 6 13 -11 14
-10 9 4 -3 9 -10 16 -16 16 -5 0 -6 5 -3 10 4 6 11 8 16 5 5 -3 6 1 3 9 -3 9
-11 13 -18 10 -6 -3 -2 2 8 10 16 13 17 16 4 16 -17 0 -19 23 -3 37 4 4 5 2 0
-6 -6 -10 -4 -12 4 -7 7 5 9 12 3 19 -5 7 -12 21 -16 31 -5 16 -4 17 9 6 13
-11 14 -10 9 4 -3 9 -10 16 -16 16 -5 0 -6 5 -3 10 4 6 11 8 16 5 5 -3 6 1 3
9 -3 9 -11 13 -18 10 -6 -3 -2 2 8 10 16 13 17 16 4 16 -17 0 -19 23 -3 37 4
4 5 2 0 -6 -6 -10 -4 -12 4 -7 7 5 9 12 3 19 -5 7 -12 21 -16 31 -5 16 -4 17
9 6 13 -11 14 -10 9 4 -3 9 -10 16 -16 16 -5 0 -6 5 -3 10 4 6 11 8 16 5 5 -3
6 1 3 9 -3 9 -11 13 -18 10 -6 -3 -2 2 8 10 16 13 17 16 4 16 -17 0 -19 23 -3
37 4 4 5 2 0 -6 -6 -10 -4 -12 4 -7 7 5 9 12 3 19 -17 22 -21 46 -10 53 6 4 8
3 4 -4 -3 -6 -2 -13 3 -16 5 -4 8 2 6 11 -2 10 -4 22 -4 26 -1 5 -5 6 -10 2
-5 -3 -13 0 -17 6 -4 7 -3 9 3 6 6 -4 16 0 22 7 9 11 9 16 0 22 -8 5 -9 3 -4
-6 5 -9 4 -11 -4 -6 -6 4 -8 13 -4 19 4 7 6 20 5 30 -2 9 2 17 9 17 7 0 4 7
-7 16 -10 8 -14 13 -8 10 7 -3 15 1 18 10 3 8 2 12 -4 9 -12 -8 -13 45 -1 64
10 16 3 43 -9 36 -5 -3 -12 0 -16 6 -4 7 -3 9 3 6 6 -4 16 0 22 7 9 11 9 16 0
22 -8 5 -9 3 -4 -6 5 -9 4 -11 -4 -6 -6 4 -8 13 -4 19 4 7 6 20 5 30 -2 9 2
17 9 17 7 0 4 7 -7 16 -10 8 -14 13 -8 10 7 -3 15 1 18 10 3 8 2 12 -4 9 -12
-8 -13 45 -1 64 10 16 3 43 -9 36 -5 -3 -12 0 -16 6 -4 7 -3 9 3 6 6 -4 16 0
22 7 9 11 9 16 0 22 -8 5 -9 3 -4 -6 5 -9 4 -11 -4 -6 -6 4 -8 13 -4 19 4 7 6
20 5 30 -2 9 2 17 9 17 7 0 4 7 -7 16 -10 8 -14 13 -8 10 7 -3 15 1 18 10 3 8
2 12 -4 9 -12 -8 -13 45 -1 64 10 16 3 43 -9 36 -5 -3 -12 0 -16 6 -4 7 -3 9
3 6 6 -4 16 0 22 7 9 11 9 16 0 22 -8 5 -9 3 -4 -6 5 -9 4 -11 -4 -6 -6 4 -8
13 -4 19 4 7 6 20 5 30 -2 9 2 17 9 17 7 0 4 7 -7 16 -10 8 -14 13 -8 10 7 -3
15 1 18 10 3 8 2 12 -4 9 -12 -8 -13 45 -1 64 10 16 3 43 -9 36 -5 -3 -12 0
-16 6 -4 7 -3 9 3 6 6 -4 16 0 22 7 9 11 9 16 0 22 -8 5 -9 3 -4 -6 5 -9 4
-11 -4 -6 -6 4 -8 13 -4 19 4 7 6 20 5 30 -2 9 2 17 9 17 7 0 4 7 -7 16 -10 8
-14 13 -8 10 7 -3 15 1 18 10 3 8 2 12 -4 9 -12 -8 -13 45 -1 64 10 16 3 43
-9 36 -5 -3 -12 0 -16 6 -4 7 -3 9 3 6 6 -4 16 0 22 7 9 11 9 16 0 22 -8 5 -9
3 -4 -6 5 -9 4 -11 -4 -6 -9 6 -9 11 0 22 9 11 9 14 0 14 -7 0 -9 5 -6 10 4 6
11 8 16 5 5 -3 6 1 3 9 -3 9 -11 13 -18 10 -6 -3 -2 2 8 10 16 13 17 16 4 16
-17 0 -19 23 -3 37 4 4 5 2 0 -6 -6 -10 -4 -12 4 -7 7 5 9 12 3 19 -5 7 -12
21 -16 31 -5 16 -4 17 9 6 13 -11 14 -10 9 4 -3 9 -10 16 -16 16 -5 0 -6 5 -3
10 4 6 11 8 16 5 5 -3 6 1 3 9 -3 9 -11 13 -18 10 -6 -3 -2 2 8 10 16 13 17
16 4 16 -17 0 -19 23 -3 37 4 4 5 2 0 -6 -6 -10 -4 -12 4 -7 7 5 9 12 3 19 -5
7 -12 21 -16 31 -5 16 -4 17 9 6 13 -11 14 -10 9 4 -3 9 -10 16 -16 16 -5 0
-6 5 -3 10 4 6 11 8 16 5 5 -3 6 1 3 9 -3 9 -11 13 -18 10 -6 -3 -2 2 8 10 16
13 17 16 4 16 -17 0 -19 23 -3 37 4 4 5 2 0 -6 -6 -10 -4 -12 4 -7 7 5 9 12 3
19 -5 7 -12 21 -16 31 -5 16 -4 17 9 6 13 -11 14 -10 9 4 -3 9 -10 16 -16 16
-5 0 -6 5 -3 10 4 6 11 8 16 5 5 -3 6 1 3 9 -3 9 -11 13 -18 10 -6 -3 -2 2 8
10 16 13 17 16 4 16 -17 0 -19 23 -3 37 4 4 5 2 0 -6 -6 -10 -4 -12 4 -7 7 5
9 12 3 19 -5 7 -12 21 -16 31 -5 16 -4 17 9 6 13 -11 14 -10 9 4 -3 9 -10 16
-16 16 -5 0 -6 5 -3 10 4 6 11 8 16 5 5 -3 6 1 3 9 -3 9 -11 13 -18 10 -6 -3
-2 2 8 10 16 13 17 16 4 16 -17 0 -19 23 -3 37 4 4 5 2 0 -6 -6 -10 -4 -12 4
-7 7 5 9 12 3 19 -5 7 -12 21 -16 31 -5 16 -4 17 9 6 13 -11 14 -10 9 4 -3 9
-10 16 -16 16 -5 0 -6 5 -3 10 4 6 11 8 16 5 5 -3 6 1 3 9 -3 9 -11 13 -18 10
-6 -3 -2 2 8 10 16 13 17 16 4 16 -17 0 -19 23 -3 37 4 4 5 2 0 -6 -6 -10 -4
-12 4 -7 7 5 9 12 3 19 -5 7 -12 21 -16 31 -5 16 -4 17 9 6 13 -11 14 -10 9 4
-3 9 -10 16 -16 16 -5 0 -6 5 -3 10 4 6 11 8 16 5 5 -3 6 1 3 9 -3 9 -11 13
-18 10 -6 -3 -2 2 8 10 16 13 17 16 4 16 -17 0 -19 23 -3 37 4 4 5 2 0 -6 -6
-10 -4 -12 4 -7 7 5 9 12 3 19 -5 7 -12 21 -16 31 -5 16 -4 17 9 6 13 -11 14
-10 9 4 -3 9 -10 16 -16 16 -5 0 -6 5 -3 10 4 6 11 8 16 5 5 -3 6 1 3 9 -3 9
-11 13 -18 10 -6 -3 -2 2 8 10 16 13 17 16 4 16 -17 0 -19 23 -3 37 4 4 5 2 0
-6 -6 -10 -4 -12 4 -7 8 5 9 12 3 19 -17 21 -24 57 -12 57 6 0 9 -4 5 -9 -3
-5 -1 -12 4 -15 11 -7 9 13 -2 32 -5 7 -13 10 -18 7 -5 -4 -9 0 -9 7 0 9 -3 9
-10 -2 -5 -8 -10 -10 -10 -5 0 6 -21 9 -51 6 -41 -2 -50 0 -43 10 6 12 5 12
-8 1 -13 -10 -17 -10 -21 0 -4 10 -6 10 -6 -1 -1 -11 -4 -11 -18 0 -9 8 -14 9
-10 3 4 -7 0 -15 -9 -18 -8 -3 -13 -2 -10 3 3 5 -1 11 -9 15 -8 3 -15 0 -15
-6 0 -6 -6 -5 -17 3 -15 12 -16 12 -8 -1 4 -8 -3 -4 -16 10 -13 14 -21 26 -17
28 4 2 0 21 -7 43 -10 27 -11 37 -3 33 7 -5 9 -2 5 8 -3 9 0 21 6 27 9 9 8 11
-4 6 -10 -4 -16 0 -16 9 0 8 4 13 9 10 4 -3 8 0 8 5 0 6 -4 11 -9 11 -8 0 -8
21 -1 40 13 33 -23 78 -46 59 -11 -9 -15 -7 -20 5 -3 9 -10 16 -16 16 -5 0 -7
-4 -4 -8 3 -5 -1 -9 -9 -9 -8 0 -12 4 -9 8 2 4 0 10 -6 14 -5 3 -10 0 -10 -7
0 -9 -3 -9 -10 2 -6 10 -10 11 -10 3 0 -7 -5 -13 -11 -13 -5 0 -7 5 -3 11 4 8
0 8 -15 0 -16 -9 -21 -9 -21 1 0 9 -3 9 -10 -2 -9 -13 -14 -7 -11 13 0 4 -3 7
-9 7 -5 0 -10 -4 -10 -8 0 -4 -9 -8 -20 -8 -11 0 -20 4 -20 8 0 4 6 8 13 8 9
0 8 3 -2 9 -8 5 -9 11 -3 15 11 7 11 24 -1 44 -5 6 -5 12 0 12 4 0 8 14 8 30
0 20 -4 29 -13 25 -8 -3 -7 4 4 20 15 23 15 25 0 25 -10 0 -14 5 -11 10 4 6
10 8 14 6 4 -3 8 1 8 9 0 8 -4 12 -9 9 -11 -7 -10 3 2 26 7 14 6 23 -6 34 -14
15 -14 16 3 16 14 0 15 2 4 9 -11 7 -11 9 0 14 12 5 12 6 0 6 -11 1 -11 4 0
18 10 11 10 14 2 9 -8 -4 -13 -2 -13 6 0 10 -2 10 -9 -1 -7 -11 -9 -11 -14 0
-5 12 -7 12 -15 0 -8 -11 -11 -11 -16 0 -5 11 -7 11 -12 2 -4 -10 -9 -9 -21 3
-12 11 -18 12 -23 4 -6 -9 -9 -9 -13 1 -4 12 -7 11 -16 -1 -9 -13 -11 -12 -11
4 0 20 0 20 -15 0 -8 -11 -15 -14 -15 -6 0 6 -5 12 -11 12 -5 0 -8 -4 -4 -9 3
-5 0 -13 -6 -17 -8 -4 -9 -3 -5 4 5 8 -1 12 -16 12 -17 0 -20 3 -9 9 10 7 7 9
-12 8 -15 -1 -27 -6 -27 -12 0 -5 -5 -2 -11 7 -9 17 -11 17 -37 0 -14 -9 -23
-12 -20 -7 4 6 -3 17 -15 25 -19 12 -20 11 -10 -2 11 -13 7 -14 -32 -8 -27 4
-45 3 -45 -3 0 -5 -6 -5 -13 2 -8 6 -17 8 -20 4 -4 -3 -7 0 -7 8 0 11 -2 11
-10 -1 -5 -8 -10 -10 -10 -4 0 6 -7 11 -15 11 -8 0 -12 -4 -9 -9 7 -11 -3 -10
-28 3 -15 8 -19 8 -14 0 4 -6 2 -11 -3 -11 -6 0 -11 5 -11 11 0 8 -4 8 -14 0
-11 -9 -15 -9 -18 0 -5 14 -68 21 -68 7 0 -5 5 -6 12 -2 7 5 8 3 3 -6 -6 -10
-11 -9 -22 5 -7 11 -13 14 -13 8 0 -6 -9 -9 -20 -6 -11 3 -20 9 -20 12 0 4 -7
8 -15 8 -12 0 -12 -3 -2 -15 11 -13 9 -14 -13 -2 -30 16 -72 22 -64 9 3 -5 1
-9 -5 -9 -5 0 -15 8 -20 18 -7 11 -10 13 -11 3 0 -11 -3 -11 -17 0 -15 12 -16
12 -10 -3 4 -12 2 -15 -8 -11 -8 3 -12 10 -8 17 3 6 -3 3 -15 -8 -18 -15 -24
-16 -37 -6 -8 7 -24 10 -35 7 -11 -3 -23 0 -27 5 -4 7 -1 8 7 3 9 -6 11 -4 6
4 -6 9 -13 8 -27 -5 -19 -17 -20 -17 -13 2 7 16 5 17 -8 7 -8 -7 -18 -10 -22
-6 -3 4 -15 7 -26 8 -16 1 -18 -1 -7 -14 10 -14 10 -14 -8 0 -36 29 -45 32
-38 12 5 -15 3 -16 -8 -5 -7 6 -19 12 -27 12 -8 0 -10 -5 -6 -12 6 -10 5 -10
-7 -1 -12 10 -18 10 -29 0 -10 -9 -11 -9 -6 1 5 8 0 12 -14 12 -14 0 -19 4
-14 13 6 9 5 9 -7 0 -8 -7 -28 -10 -43 -7 -20 3 -26 1 -20 -8 5 -10 4 -10 -6
-1 -7 6 -19 9 -28 6 -10 -4 -13 -2 -8 5 9 16 -7 15 -22 0 -9 -9 -12 -9 -12 0
0 7 -5 12 -11 12 -5 0 -7 -6 -3 -12 6 -10 5 -10 -7 -1 -15 12 -43 12 -55 0 -4
-4 -12 -7 -18 -7 -6 0 -4 5 4 10 13 8 13 10 -2 10 -9 0 -24 3 -34 7 -10 4 -15
2 -11 -3 6 -11 -50 -10 -60 0 -4 3 -12 1 -20 -6 -11 -9 -12 -7 -6 8 6 17 5 17
-10 5 -14 -11 -17 -11 -17 0 0 12 -2 12 -9 0 -6 -9 -10 -10 -16 -2 -5 9 -10 9
-20 1 -9 -8 -15 -8 -20 0 -3 5 -11 10 -16 10 -6 0 -7 -6 -3 -12 6 -10 4 -10
-7 -2 -8 6 -22 14 -33 18 -14 5 -17 2 -12 -9 3 -9 2 -13 -4 -10 -6 3 -10 14
-11 23 0 14 -2 13 -9 -3 -6 -13 -9 -15 -9 -5 -1 13 -2 13 -11 0 -5 -8 -10 -10
-10 -4 0 16 -36 24 -49 11 -8 -8 -11 -7 -11 3 0 11 -3 11 -12 2 -15 -15 -31
-16 -22 -1 5 8 2 9 -12 1 -14 -8 -23 -7 -36 5 -10 9 -18 12 -18 6 0 -11 -41
-10 -59 2 -6 3 -11 -2 -12 -12 -1 -13 -3 -11 -9 7 -4 14 -8 19 -9 13 -1 -7 -6
-13 -12 -13 -5 0 -7 6 -3 13 6 10 4 10 -7 0 -15 -15 -33 -17 -25 -4 7 11 -13
9 -31 -2 -8 -5 -13 -3 -13 5 0 9 -3 9 -10 -2 -6 -10 -10 -11 -10 -2 0 6 -6 12
-12 12 -9 0 -12 14 -12 40 1 22 -3 40 -8 40 -7 0 -7 5 1 13 8 10 7 17 -2 27
-9 10 -9 11 1 6 6 -4 12 -2 12 3 0 6 -5 11 -11 11 -5 0 -8 4 -5 8 2 4 -4 8
-14 8 -10 0 -16 -5 -12 -11 3 -5 -2 -4 -11 4 -9 7 -23 11 -30 8 -9 -3 -13 2
-11 16 1 12 3 22 4 22 1 0 3 10 4 23 2 12 -2 22 -8 22 -6 0 -5 5 2 12 15 15
16 32 2 23 -6 -4 -2 8 8 27 19 36 21 46 9 66 -5 7 -4 12 3 12 6 0 8 5 5 10 -4
6 -12 8 -18 4 -7 -3 -3 2 7 10 15 12 16 16 5 16 -12 0 -12 2 1 10 13 9 13 10
0 10 -13 0 -13 1 0 10 13 8 13 10 1 10 -11 0 -12 3 -3 12 7 7 8 17 1 30 -7 13
-6 18 3 18 9 0 9 3 -2 10 -8 5 -11 10 -6 10 5 0 3 7 -4 16 -8 8 -9 14 -4 13
21 -4 28 2 14 11 -11 7 -11 10 -2 10 7 0 10 5 7 10 -4 6 -12 8 -18 4 -7 -3 -4
1 7 10 11 9 15 20 10 28 -11 17 -13 48 -2 42 4 -3 8 2 8 10 0 9 6 16 13 16 8
0 7 4 -3 10 -13 9 -7 14 13 11 10 -1 4 22 -8 31 -6 4 -2 8 9 8 18 0 18 1 -2
19 -12 10 -19 21 -15 25 3 3 -4 6 -16 6 -15 0 -20 4 -15 13 5 7 2 7 -10 -2
-15 -12 -17 -12 -14 0 2 8 -4 13 -14 13 -10 -1 -20 7 -23 17 -4 11 -11 17 -16
14 -5 -4 -12 1 -15 10 -6 13 -8 14 -15 3 -7 -10 -9 -11 -9 0 0 7 -4 10 -10 7
-5 -3 -10 1 -10 9 0 9 -3 15 -7 14 -17 -4 -53 14 -53 28 0 8 -6 14 -12 14 -9
0 -8 4 2 10 10 6 11 10 3 10 -7 0 -13 7 -13 15 0 8 -5 15 -11 15 -5 0 -7 -6
-3 -12 5 -8 1 -8 -12 2 -10 8 -16 10 -12 6z m-112 -106 c0 -5 -5 -10 -11 -10
-5 0 -7 5 -4 10 3 6 8 10 11 10 2 0 4 -4 4 -10z m377 -555 c0 -8 -4 -12 -9 -9
-5 3 -6 10 -3 15 9 13 12 11 12 -6z m-1397 -271 c0 -8 -19 -13 -24 -6 -3 5 1
9 9 9 8 0 15 -2 15 -3z m-1710 -1484 c0 -5 -5 -10 -11 -10 -5 0 -7 5 -4 10 3
6 8 10 11 10 2 0 4 -4 4 -10z m2196 -382 c5 -7 3 -8 -6 -3 -9 5 -11 4 -6 -3 5
-8 15 -8 33 -1 18 6 30 6 39 -2 10 -8 14 -8 14 0 0 7 8 8 25 1 18 -7 25 -6 26
3 0 6 4 3 9 -8 6 -13 9 -15 9 -5 1 10 11 15 30 15 16 0 27 -3 25 -6 -2 -4 5
-9 16 -12 11 -3 18 -1 14 4 -3 5 0 9 5 9 6 0 11 -6 12 -12 0 -9 2 -9 6 1 5 11
7 11 14 0 8 -12 11 -11 19 1 6 10 10 11 10 3 0 -7 7 -13 15 -13 18 0 19 -5 4
-32 -6 -11 -7 -18 -1 -14 5 3 10 -5 10 -19 0 -15 -5 -22 -12 -18 -7 4 -7 2 1
-7 6 -7 9 -19 6 -28 -5 -11 -2 -13 8 -8 8 4 6 1 -3 -6 -15 -11 -15 -13 0 -26
9 -7 11 -11 5 -7 -8 4 -13 0 -13 -10 0 -9 4 -13 10 -10 6 3 7 -1 4 -9 -3 -9
-11 -13 -18 -9 -6 3 -6 1 2 -8 6 -7 12 -19 12 -27 0 -8 -5 -10 -12 -6 -10 5
-10 4 -1 -6 10 -11 10 -17 0 -29 -10 -12 -9 -13 1 -7 16 10 13 -25 -3 -36 -7
-5 -6 -8 0 -8 14 0 17 -38 4 -46 -6 -4 -6 -11 2 -20 9 -11 8 -14 -2 -14 -11 0
-11 -2 1 -10 10 -6 11 -10 3 -10 -7 0 -13 -7 -13 -15 0 -8 6 -15 13 -15 8 0 8
-3 -2 -9 -13 -8 -13 -12 0 -27 8 -10 9 -15 3 -11 -7 4 -14 0 -18 -8 -3 -8 0
-17 6 -21 7 -5 8 -2 3 6 -6 9 -4 11 4 5 9 -5 10 -10 2 -18 -15 -15 -14 -30 2
-21 7 5 6 0 -3 -11 -12 -15 -13 -19 -1 -23 11 -4 11 -6 0 -13 -10 -6 -11 -11
-3 -19 11 -11 7 -59 -5 -61 -45 -6 -70 -6 -67 0 3 4 -1 8 -9 8 -8 0 -12 -4 -9
-9 3 -4 0 -8 -5 -8 -6 0 -11 6 -11 13 0 9 -3 8 -9 -2 -6 -9 -10 -10 -16 -2 -5
9 -10 9 -21 0 -8 -6 -14 -8 -14 -4 0 4 -7 2 -15 -5 -13 -11 -14 -10 -10 1 4
10 -1 15 -14 15 -11 0 -18 -3 -15 -7 2 -4 -8 -6 -21 -6 -14 0 -25 5 -25 11 0
6 -5 4 -10 -4 -8 -12 -10 -12 -10 -1 0 8 -3 11 -6 8 -4 -3 -16 -2 -27 4 -13 8
-17 8 -13 1 4 -6 -2 -10 -13 -9 -15 1 -17 4 -9 14 8 9 7 13 -2 13 -8 0 -9 4
-4 13 5 6 9 19 8 27 -1 8 -2 21 -3 28 0 7 -7 10 -13 7 -7 -4 -4 1 6 9 11 9 15
16 10 16 -6 0 -11 7 -11 15 0 8 5 15 11 15 6 0 4 5 -4 10 -8 5 -10 10 -3 10
12 0 12 17 0 38 -5 7 -3 12 5 13 10 0 10 2 1 6 -10 3 -10 10 -2 25 9 16 8 19
-2 13 -9 -6 -10 -3 -5 11 14 33 12 59 -4 56 -10 -1 -9 2 4 13 11 8 15 15 10
15 -6 0 -11 7 -11 15 0 8 5 15 11 15 6 0 4 5 -4 10 -8 5 -10 10 -3 10 12 0 12
17 0 38 -5 7 -3 12 5 13 10 0 10 2 1 6 -10 3 -10 10 -2 25 9 16 8 19 -2 13 -9
-6 -10 -3 -5 11 15 38 15 54 -2 64 -15 8 -15 9 3 10 17 0 17 2 5 10 -13 9 -13
10 0 10 13 0 13 1 0 10 -13 9 -13 10 0 10 9 0 11 3 5 8 -5 4 -10 18 -10 32 0
21 9 32 42 49 1 1 5 -4 9 -11z m399 -30 c4 0 12 6 16 14 7 10 9 8 10 -7 0 -11
3 -15 5 -8 4 8 14 9 35 3 17 -5 29 -5 29 1 0 5 5 9 11 9 5 0 8 -4 5 -8 -2 -4
11 -6 31 -4 28 4 34 2 27 -9 -7 -12 -5 -12 9 0 9 7 17 9 17 4 0 -5 9 -9 19 -9
11 0 17 4 15 8 -3 4 -1 8 5 8 5 0 13 -5 16 -10 5 -8 11 -7 21 1 11 9 14 9 14
-1 0 -9 3 -10 14 -1 10 9 17 7 27 -6 12 -14 12 -16 0 -8 -9 5 -12 4 -8 -2 13
-21 16 -67 4 -75 -9 -6 -9 -8 1 -8 7 0 11 -4 7 -9 -3 -5 -6 -32 -6 -60 -1 -30
-6 -51 -13 -51 -6 0 -5 -4 3 -9 10 -6 11 -13 2 -29 -8 -15 -8 -23 0 -27 6 -4
8 -13 5 -20 -2 -7 1 -18 7 -25 9 -10 9 -11 -2 -5 -10 6 -11 2 -6 -15 5 -15 2
-25 -6 -31 -10 -6 -11 -9 -1 -9 6 0 12 -11 12 -25 0 -14 -6 -25 -12 -25 -9 0
-8 -4 2 -10 12 -8 13 -13 3 -30 -7 -11 -13 -23 -13 -27 0 -5 4 -1 10 7 6 10 9
5 8 -18 -1 -18 -6 -32 -12 -32 -6 0 -4 -5 4 -10 12 -7 12 -12 3 -21 -9 -9 -9
-16 -2 -25 7 -8 7 -14 -1 -19 -8 -5 -7 -11 1 -22 10 -12 10 -16 -2 -24 -11 -7
-12 -11 -1 -18 11 -6 9 -10 -7 -14 -14 -3 -19 -1 -14 6 4 7 -1 6 -10 -2 -14
-11 -17 -11 -17 0 0 11 -2 11 -10 -1 -8 -12 -10 -12 -10 -1 0 11 -3 11 -15 1
-12 -10 -15 -10 -15 1 0 11 -2 11 -10 -1 -9 -13 -11 -13 -20 0 -9 13 -10 13
-10 0 0 -13 -1 -13 -10 0 -9 13 -10 13 -10 0 0 -12 -2 -12 -9 -1 -6 9 -11 10
-15 2 -4 -6 -13 -11 -19 -11 -7 0 -6 4 3 11 12 9 11 10 -6 6 -12 -2 -29 0 -38
5 -9 5 -16 5 -16 0 0 -13 -30 -11 -31 2 0 6 -4 2 -9 -9 l-9 -20 0 20 c-1 15
-3 17 -10 6 -13 -20 -30 -5 -29 28 1 15 -2 33 -6 40 -4 6 0 11 10 11 16 0 16
1 -2 15 -10 8 -13 15 -7 15 9 0 10 7 3 25 -7 18 -6 25 3 26 8 0 8 2 -2 6 -11
5 -11 7 0 14 12 8 11 11 -1 19 -9 6 -10 10 -3 10 8 0 9 9 3 29 -4 16 -7 31 -5
33 4 4 5 29 6 123 0 28 1 75 3 105 1 30 -2 63 -7 74 -6 11 -5 16 1 13 5 -4 8
15 7 46 -2 60 4 94 15 77 4 -6 11 -12 15 -12z m530 -20 c-3 6 -1 12 4 12 6 0
11 -4 11 -10 0 -5 7 -7 15 -4 8 4 23 0 32 -7 10 -8 14 -9 10 -2 -5 8 0 11 13
10 11 -1 20 -6 20 -12 0 -5 4 -4 9 4 6 9 10 10 16 2 5 -9 10 -9 21 0 10 8 14
8 14 0 0 -6 8 -11 18 -11 14 0 15 -2 2 -10 -13 -9 -13 -10 0 -10 12 0 12 -2 1
-9 -9 -6 -10 -10 -2 -16 8 -4 9 -11 3 -18 -13 -16 -11 -47 2 -47 8 0 8 -3 1
-8 -14 -9 -14 -155 0 -164 7 -5 6 -8 -2 -8 -12 0 -12 -17 0 -37 4 -6 3 -14 -3
-18 -6 -4 -7 -12 -3 -18 10 -17 11 -47 1 -47 -5 0 -6 -4 -3 -10 3 -5 0 -10 -7
-10 -8 0 -6 -5 5 -11 13 -8 15 -14 7 -29 -7 -13 -7 -21 0 -25 8 -5 7 -11 -1
-21 -9 -11 -8 -14 2 -15 11 0 11 -2 1 -6 -10 -4 -10 -8 -1 -19 9 -11 9 -14 0
-14 -7 0 -9 -4 -6 -10 3 -5 0 -10 -7 -10 -8 0 -6 -5 5 -11 14 -8 15 -14 5 -32
-6 -12 -11 -23 -10 -24 10 -15 -4 -32 -28 -35 -22 -3 -30 0 -31 11 -1 13 -2
12 -6 -2 -2 -9 -9 -15 -14 -11 -5 3 -6 10 -3 16 4 6 -2 6 -15 -1 -16 -9 -21
-9 -22 1 0 9 -2 9 -5 1 -4 -8 -14 -9 -35 -3 -20 6 -29 5 -30 -3 0 -7 -3 -7 -6
2 -5 11 -7 11 -14 0 -7 -11 -9 -11 -9 -1 0 7 -5 10 -11 7 -20 -13 -89 -11 -89
3 0 6 -4 12 -8 12 -5 0 -9 22 -9 49 -1 27 -4 55 -9 62 -5 9 -2 10 11 5 14 -5
15 -3 8 6 -6 7 -11 45 -10 84 0 39 -4 77 -8 84 -6 10 -4 12 11 6 15 -6 17 -5
7 5 -7 7 -13 21 -13 32 0 12 4 16 13 11 9 -5 9 -4 0 6 -10 11 -10 17 0 28 9
12 9 16 -1 20 -10 3 -10 7 -1 18 6 8 7 14 2 14 -5 0 -9 9 -9 19 0 15 3 17 13
9 10 -8 12 -7 7 6 -3 9 -11 16 -18 16 -6 0 -4 5 4 10 12 8 12 10 1 10 -11 0
-11 3 0 17 12 14 12 15 1 9 -11 -7 -12 -4 -3 13 9 16 9 21 0 21 -8 0 -8 4 1
15 10 12 10 15 0 15 -10 0 -10 3 -1 14 9 11 9 15 -1 19 -10 4 -10 7 1 18 12
12 13 12 6 0 -6 -10 -4 -12 5 -6 10 6 10 11 -3 20 -22 16 -22 26 0 18 11 -4
14 -3 9 5 -10 16 6 15 23 0 11 -11 12 -10 7 0 -7 12 15 11 62 -4 7 -2 15 3 19
11 5 13 7 13 20 -2 8 -10 12 -12 8 -5z m925 -11 c0 -8 4 -7 10 3 6 10 10 11
10 3 0 -7 5 -13 11 -13 5 0 7 6 3 13 -6 10 -4 10 7 0 7 -7 19 -13 27 -13 8 0
10 5 6 13 -6 10 -4 10 7 0 7 -7 17 -13 22 -13 4 0 5 6 1 13 -4 6 1 4 12 -5 13
-12 24 -14 36 -7 11 6 19 6 23 -1 4 -6 16 -3 33 7 24 16 26 16 14 1 -11 -14
-11 -16 6 -11 23 6 36 -29 18 -47 -8 -8 -6 -9 9 -4 18 7 19 6 6 -10 -13 -15
-13 -19 0 -27 8 -5 9 -9 4 -9 -6 0 -11 -9 -12 -20 -1 -13 2 -18 9 -14 7 5 8 2
2 -7 -5 -8 -10 -52 -11 -98 0 -46 3 -78 7 -71 5 9 8 4 7 -13 -2 -20 -5 -23
-16 -14 -12 10 -12 9 -3 -9 6 -12 9 -24 5 -27 -3 -4 0 -14 8 -24 12 -14 12
-16 0 -8 -11 6 -13 4 -8 -8 3 -9 1 -18 -6 -21 -7 -2 -3 -5 8 -5 17 -1 17 -3 5
-11 -8 -5 -11 -10 -6 -10 5 0 3 -6 -3 -14 -9 -11 -9 -16 0 -22 8 -5 9 -3 4 6
-6 9 -4 11 4 6 9 -6 8 -12 -4 -26 -12 -14 -13 -20 -4 -26 8 -5 10 -3 4 6 -5 9
-4 11 4 6 9 -6 9 -11 0 -22 -9 -11 -8 -14 2 -14 10 0 10 -3 3 -8 -15 -9 -15
-63 0 -56 6 3 3 -1 -6 -9 -21 -17 -23 -28 -5 -21 8 3 14 -2 14 -10 0 -8 -4
-13 -8 -11 -4 3 -10 -2 -13 -11 -5 -13 -9 -14 -20 -5 -11 9 -15 9 -20 -1 -5
-10 -7 -10 -12 1 -5 11 -8 11 -15 0 -7 -11 -9 -9 -9 6 0 15 -3 17 -9 7 -4 -8
-12 -14 -16 -14 -4 0 -12 6 -16 14 -7 11 -9 10 -9 -1 0 -11 -5 -10 -20 4 -14
13 -19 14 -15 4 4 -11 -5 -14 -44 -14 -27 0 -47 3 -44 8 6 10 -5 9 -26 -2 -13
-7 -20 -5 -30 11 -10 16 -10 19 1 12 10 -6 11 -5 2 7 -15 18 -15 70 -2 87 8 9
6 18 -6 31 -13 14 -14 21 -5 27 8 5 10 3 4 -6 -5 -8 -4 -11 3 -6 11 7 6 36 -7
36 -4 0 -8 7 -8 15 0 8 4 12 8 10 4 -3 10 3 14 13 4 10 1 21 -9 26 -13 9 -12
12 2 24 9 7 12 11 6 8 -15 -7 -16 44 -2 62 8 9 6 18 -6 31 -13 14 -14 21 -5
27 8 5 10 3 4 -6 -5 -8 -4 -11 3 -6 11 7 6 36 -7 36 -4 0 -8 7 -8 15 0 8 4 12
8 10 16 -11 19 30 3 42 -10 7 -13 13 -7 13 11 0 9 41 -3 62 -5 9 -1 8 11 -2
19 -15 19 -14 1 14 -10 16 -13 25 -6 21 9 -5 10 -1 5 15 -4 13 -3 20 2 17 5
-4 10 0 10 8 0 8 -4 12 -8 9 -4 -2 -7 4 -6 13 1 21 67 31 67 10z m375 -18 c8
-13 36 2 28 15 -3 6 3 3 14 -7 16 -14 23 -15 29 -6 5 8 3 10 -6 4 -9 -5 -11
-4 -6 4 4 6 13 8 19 4 22 -14 49 -14 41 -1 -5 10 -4 10 6 1 7 -6 19 -9 28 -6
10 4 13 2 8 -5 -9 -16 7 -15 22 0 9 9 12 9 12 -2 0 -11 3 -11 12 -2 18 18 32
14 17 -5 -13 -15 -12 -15 9 -4 15 8 22 8 22 1 0 -6 4 -9 9 -6 10 7 8 -29 -4
-56 -4 -12 -3 -18 5 -18 9 0 9 -4 -1 -17 -12 -15 -12 -16 1 -8 12 6 13 5 3 -6
-15 -15 -18 -33 -5 -25 10 6 9 -25 -2 -42 -4 -7 -2 -12 3 -12 7 0 7 -7 -1 -21
-10 -17 -10 -23 -1 -26 10 -3 10 -10 2 -25 -9 -16 -8 -19 2 -13 8 5 10 4 5 -4
-12 -18 -14 -61 -5 -67 5 -3 5 -13 -1 -23 -6 -12 -5 -22 3 -31 9 -10 9 -11 0
-6 -7 4 -13 2 -13 -3 0 -6 5 -11 10 -11 6 0 10 -5 10 -11 0 -5 -3 -8 -8 -5 -9
5 -9 -55 0 -70 4 -5 3 -16 -2 -24 -5 -9 -4 -20 3 -29 9 -12 9 -13 0 -7 -7 4
-13 2 -13 -3 0 -6 5 -11 10 -11 6 0 10 -5 10 -11 0 -5 -5 -7 -12 -3 -7 4 -8 3
-4 -5 4 -6 2 -19 -6 -28 -8 -10 -8 -14 -1 -10 6 4 14 3 18 -3 3 -5 1 -10 -4
-10 -6 0 -11 -5 -11 -11 0 -5 5 -7 12 -3 7 4 8 3 4 -4 -4 -7 -31 -10 -66 -9
-35 1 -60 -2 -60 -8 0 -5 -4 -4 -9 3 -4 8 -12 14 -16 14 -4 0 -12 -6 -16 -14
-6 -9 -9 -10 -9 -1 0 7 -7 10 -16 6 -9 -3 -20 0 -25 8 -8 12 -10 12 -19 -1 -8
-13 -11 -12 -23 4 -11 15 -16 16 -22 6 -6 -9 -4 -11 5 -5 9 5 11 4 6 -4 -6 -9
-11 -9 -24 1 -10 9 -13 9 -9 1 5 -8 1 -11 -12 -10 -15 1 -17 4 -9 14 8 9 7 13
-2 13 -8 0 -11 9 -8 25 3 13 1 22 -3 19 -5 -3 -9 0 -9 5 0 6 5 11 11 11 5 0 7
4 4 10 -3 5 -8 19 -10 31 -4 18 -2 19 12 7 15 -12 15 -11 4 10 -7 13 -10 30
-7 38 3 9 1 12 -4 9 -6 -3 -10 -1 -10 4 0 6 5 11 11 11 8 0 8 5 -1 15 -7 8 -8
15 -3 15 11 0 9 42 -2 59 -3 6 0 11 7 11 9 0 9 3 -2 10 -12 8 -12 10 -1 10 11
0 11 3 1 15 -7 8 -9 15 -4 15 12 0 11 73 -1 82 -6 5 -4 8 5 8 13 0 13 1 0 10
-11 7 -11 10 -2 10 9 0 10 5 4 15 -4 9 -5 38 -2 65 4 33 3 50 -4 51 -6 0 -5 3
3 6 11 5 11 7 0 14 -11 7 -11 9 -1 9 10 0 10 5 1 21 -9 17 -8 20 2 14 9 -6 11
-3 6 8 -3 10 -2 17 4 17 6 0 8 4 5 9 -3 4 6 6 19 3 14 -2 28 -8 30 -13z m366
-9 c6 0 7 6 3 13 -5 8 -3 8 9 -2 9 -7 28 -11 42 -9 13 3 22 2 20 -3 -3 -4 -1
-10 5 -14 5 -3 10 1 10 9 0 9 5 16 11 16 5 0 7 -4 4 -10 -3 -5 1 -10 10 -10 9
0 14 4 11 9 -8 12 48 0 56 -13 5 -7 8 -3 8 9 0 17 2 17 10 5 7 -11 10 -11 10
-2 0 7 5 10 10 7 6 -4 7 -11 4 -17 -4 -6 3 -5 16 2 18 10 21 9 15 -1 -6 -8 -4
-11 6 -7 10 4 14 -3 14 -23 0 -16 -4 -29 -8 -29 -5 0 -5 -5 -2 -11 12 -18 12
-69 1 -69 -6 0 -2 -7 8 -15 11 -8 15 -15 8 -15 -7 0 -11 -14 -10 -35 1 -22 5
-32 12 -28 6 4 5 0 -2 -9 -7 -8 -10 -23 -6 -32 4 -9 1 -16 -6 -16 -9 0 -8 -6
4 -19 15 -17 15 -19 0 -32 -14 -12 -14 -14 2 -26 17 -12 17 -13 -2 -14 -10 0
-13 -3 -6 -6 6 -2 9 -9 6 -14 -3 -6 0 -17 7 -25 6 -8 9 -17 5 -21 -3 -3 -6 -1
-6 5 0 7 -4 12 -10 12 -6 0 -6 -9 0 -25 7 -18 6 -25 -3 -26 -6 0 -3 -4 8 -9
11 -5 14 -9 6 -9 -7 -1 -11 -7 -7 -16 3 -8 0 -15 -6 -15 -6 0 -4 -8 5 -18 13
-14 14 -21 5 -30 -18 -18 -18 -51 1 -44 14 5 14 3 2 -11 -7 -9 -11 -23 -8 -31
8 -20 -3 -27 -24 -15 -14 7 -19 6 -20 -3 0 -11 -2 -11 -6 0 -4 10 -8 10 -19 1
-10 -8 -14 -8 -14 0 0 11 -27 11 -47 -2 -6 -4 -14 -3 -18 3 -4 7 -13 6 -27 -1
-18 -10 -20 -9 -14 7 6 18 5 18 -9 0 -9 -12 -15 -15 -15 -7 0 9 -9 12 -25 9
-14 -3 -25 -2 -25 2 0 5 -10 6 -22 2 -16 -4 -19 -2 -13 9 7 11 5 11 -10 -1
-10 -8 -16 -10 -12 -3 4 6 3 14 -2 18 -7 3 -7 15 -1 29 5 13 6 27 2 31 -3 3 0
10 8 15 11 7 12 10 2 10 -9 0 -11 7 -7 21 5 14 4 19 -4 15 -7 -5 -9 -1 -5 8 3
9 11 16 18 16 8 0 8 2 0 8 -14 9 -14 74 1 84 6 5 5 8 -3 8 -9 0 -11 7 -7 21 5
14 4 19 -4 15 -7 -5 -9 -1 -5 8 3 9 11 16 18 16 8 0 8 2 -1 8 -7 4 -11 30 -10
65 2 33 -2 57 -8 58 -5 0 -5 3 1 5 7 3 10 14 7 24 -3 13 0 20 8 20 12 0 12 2
0 9 -11 7 -11 13 0 32 12 23 11 23 -6 9 -15 -12 -17 -12 -10 -1 5 8 8 39 7 70
0 31 3 49 7 42 6 -9 10 -6 15 11 4 14 9 18 13 11 2 -7 9 -13 14 -13z m-3812
-42 c6 -44 5 -551 -2 -555 -4 -3 -3 -11 4 -19 6 -8 8 -14 3 -14 -5 0 -2 -5 6
-10 10 -6 11 -10 3 -10 -8 0 -11 -11 -9 -30 3 -29 -3 -35 -33 -31 -7 2 -10 -2
-6 -8 3 -6 0 -9 -7 -6 -16 7 -20 97 -4 107 8 5 8 8 0 8 -13 0 -15 31 -2 47 6
7 4 14 -3 19 -8 5 -9 3 -4 -6 5 -9 4 -11 -4 -6 -6 4 -8 13 -4 19 4 7 8 26 9
43 1 17 4 37 8 43 4 6 3 11 -1 11 -5 0 -9 16 -10 35 0 20 4 35 11 35 7 0 7 3
1 8 -14 10 -15 65 -1 74 7 5 7 8 1 8 -6 0 -11 16 -12 35 0 19 4 35 10 35 6 0
2 7 -9 16 -10 8 -14 13 -8 10 7 -3 10 18 9 63 -1 60 2 69 16 66 10 -2 20 3 23
11 7 17 12 18 15 2z m110 -329 c0 -170 -1 -309 -4 -309 -2 0 -10 -3 -18 -6
-21 -8 -43 32 -27 51 8 10 7 17 -5 29 -9 9 -12 16 -6 16 13 0 10 22 -4 32 -6
5 -5 8 3 8 13 0 17 42 5 54 -9 9 -11 46 -2 40 12 -7 7 39 -5 55 -9 12 -8 13 5
9 12 -5 15 -1 11 18 -2 14 -9 21 -16 17 -6 -4 -5 1 3 10 11 14 11 17 0 18 -10
0 -11 2 -1 6 6 2 12 9 12 14 0 6 -5 7 -12 3 -7 -5 -8 -3 -2 7 13 22 14 42 1
58 -10 12 -9 14 4 9 12 -5 15 -1 11 18 -2 14 -9 21 -16 17 -6 -4 -5 1 3 10 11
14 11 17 0 18 -10 0 -11 2 -1 6 6 2 12 9 12 14 0 6 -6 7 -12 3 -7 -4 -4 3 6
15 20 22 20 22 0 15 -18 -7 -18 -7 -1 13 14 16 15 23 6 29 -9 5 -7 9 7 14 42
16 43 13 43 -311z m-414 192 c-3 -5 -1 -13 5 -16 6 -4 8 -16 4 -27 -3 -11 -2
-18 3 -15 5 3 9 -3 9 -13 0 -10 -4 -16 -8 -14 -4 3 -8 1 -8 -5 0 -5 4 -13 10
-16 6 -4 5 -14 -3 -27 -9 -16 -9 -22 0 -25 10 -3 10 -10 2 -25 -8 -16 -8 -19
1 -13 9 6 9 2 1 -14 -8 -14 -8 -21 -1 -21 6 0 5 -8 -2 -20 -11 -17 -10 -22 1
-30 12 -7 12 -11 2 -23 -8 -11 -9 -17 -1 -22 6 -3 7 -12 3 -18 -12 -19 -12
-37 -1 -37 7 0 7 -4 0 -13 -7 -8 -7 -18 -2 -27 5 -8 5 -21 -1 -32 -6 -12 -6
-18 1 -18 6 0 6 -8 -2 -21 -10 -17 -10 -23 -1 -26 9 -3 10 -10 4 -21 -4 -9 -7
-27 -6 -39 1 -18 -4 -23 -20 -23 -19 0 -22 5 -20 33 0 18 5 39 10 46 5 10 4
12 -4 7 -13 -8 -12 29 2 51 4 6 4 14 -1 17 -5 3 -8 27 -7 53 2 26 -1 58 -6 71
-6 14 -5 22 2 22 7 0 6 6 -2 17 -10 11 -10 14 -1 9 15 -9 16 6 0 22 -7 7 -8
12 -2 12 10 0 10 189 0 215 -3 9 -2 14 3 11 5 -3 14 1 21 9 14 17 25 20 15 6z
m-102 -48 c5 -7 12 -11 16 -9 10 6 8 -25 -3 -43 -5 -8 -3 -17 5 -22 11 -7 11
-9 1 -9 -8 0 -10 -5 -6 -12 11 -17 12 -48 2 -42 -4 3 -8 -2 -8 -11 0 -9 4 -14
8 -11 5 3 9 -1 9 -9 0 -8 -4 -12 -9 -9 -13 8 -6 -29 7 -38 6 -5 5 -8 -2 -8 -7
0 -13 -7 -13 -16 0 -9 5 -12 13 -8 9 6 9 4 -1 -8 -8 -10 -9 -19 -3 -22 5 -3 7
-15 4 -26 -3 -11 -9 -17 -14 -14 -5 3 -6 -2 -3 -10 3 -9 11 -13 18 -9 6 3 6 1
-1 -8 -7 -7 -13 -17 -13 -22 0 -4 6 -5 13 -1 8 5 8 2 -2 -9 -7 -9 -10 -17 -6
-17 4 0 2 -7 -5 -15 -11 -13 -10 -14 6 -8 16 6 17 4 7 -8 -6 -8 -10 -24 -9
-34 2 -11 -2 -26 -8 -34 -8 -11 -8 -13 1 -8 6 4 14 3 18 -3 3 -5 2 -10 -3 -10
-5 0 -7 -11 -4 -25 3 -20 0 -25 -14 -24 -23 1 -64 17 -46 18 7 1 10 6 6 12 -6
10 -9 293 -4 302 7 10 5 47 -2 47 -5 0 -6 5 -2 12 12 19 11 78 -1 78 -5 0 -4
4 4 9 9 6 10 11 2 15 -7 5 -8 14 -3 24 5 9 8 29 7 44 -1 20 2 25 14 20 9 -3
20 -12 24 -19z m-84 -49 c-5 -6 -6 -14 -2 -17 9 -10 10 -58 1 -84 -4 -13 -4
-23 0 -23 4 0 7 -22 7 -50 0 -27 -3 -50 -7 -50 -4 0 -3 -11 2 -25 7 -18 6 -25
-3 -25 -8 0 -8 -3 2 -9 9 -6 10 -11 2 -15 -6 -4 -8 -13 -4 -19 11 -17 10 -51
-2 -59 -6 -5 -5 -8 2 -8 9 0 10 -7 3 -25 -5 -14 -6 -25 -2 -25 6 0 8 -95 2
-110 -1 -3 -2 -8 -1 -12 0 -5 -10 -8 -24 -8 -14 0 -26 6 -26 13 -6 67 -3 446
4 461 6 12 6 16 -1 12 -15 -9 -8 90 8 109 12 14 15 14 30 -2 11 -11 14 -22 9
-29z m1739 -408 c7 -4 12 -2 12 6 0 9 3 9 10 -2 7 -11 10 -11 10 -2 0 7 4 11
9 7 5 -3 36 -5 68 -5 32 0 67 0 78 0 11 0 33 0 48 0 16 0 26 -4 23 -9 -3 -5 1
-11 9 -15 9 -3 12 -12 8 -22 -5 -13 -3 -15 7 -9 10 6 11 4 4 -6 -13 -21 -14
-42 -3 -55 7 -9 5 -16 -8 -23 -10 -6 -13 -11 -7 -11 7 0 10 -14 7 -36 -3 -27
-1 -34 9 -28 10 6 10 4 2 -7 -5 -8 -10 -23 -10 -34 1 -11 -3 -23 -8 -27 -6 -4
-4 -14 5 -24 12 -16 12 -17 -2 -12 -9 4 -16 1 -16 -8 0 -7 4 -11 9 -8 4 3 8
-6 8 -20 0 -13 3 -32 7 -42 5 -13 3 -15 -7 -9 -9 6 -11 4 -5 -5 11 -17 13 -60
4 -60 -4 0 -9 -9 -12 -20 -3 -11 -2 -18 3 -15 4 3 10 -7 13 -20 2 -14 0 -28
-6 -32 -6 -4 -7 -1 -2 8 5 8 4 10 0 6 -12 -10 -15 -38 -4 -31 5 3 9 -26 9 -66
0 -45 -4 -69 -10 -65 -5 3 -10 1 -10 -5 0 -7 -6 -10 -12 -7 -7 2 -12 10 -10
16 2 8 -3 9 -16 2 -11 -6 -24 -6 -32 -1 -10 6 -21 3 -34 -8 -11 -9 -16 -12
-13 -5 4 6 3 14 -3 18 -5 3 -10 1 -10 -6 0 -9 -3 -9 -14 0 -11 9 -15 9 -18 -1
-4 -10 -8 -10 -21 1 -10 7 -17 9 -17 4 0 -11 -29 -11 -48 1 -7 4 -12 2 -12 -4
0 -6 -5 -8 -12 -3 -7 4 -20 6 -28 5 -8 -1 -21 7 -28 19 -8 12 -9 18 -3 14 7
-3 11 2 11 14 0 11 -5 23 -12 27 -8 5 -6 11 6 20 11 8 13 14 6 19 -5 3 -8 11
-4 16 3 5 1 16 -6 24 -8 10 -7 16 6 23 11 6 13 11 5 16 -8 5 -8 13 -1 26 8 15
6 21 -7 29 -17 10 -17 10 1 11 14 0 16 3 7 13 -6 8 -8 17 -4 20 3 4 1 7 -5 7
-7 0 -12 5 -12 11 0 5 4 8 8 5 4 -2 8 4 8 14 0 10 -4 16 -8 14 -4 -3 -8 -1 -8
5 0 5 5 13 11 17 8 4 7 9 -2 15 -12 8 -12 11 0 18 12 8 12 12 2 24 -7 9 -8 18
-2 21 10 7 9 25 -2 44 -5 7 -3 12 5 13 10 0 10 2 1 6 -10 3 -10 10 -2 25 9 16
8 19 -2 13 -9 -6 -10 -3 -5 11 13 32 14 49 2 56 -8 5 -7 8 2 8 9 0 8 8 -5 28
-13 20 -14 24 -2 15 12 -10 15 -8 15 7 0 10 -5 16 -11 14 -5 -3 -2 1 8 9 19
16 53 17 75 3z m338 -4 c-6 -10 56 -8 73 2 6 4 11 2 11 -5 0 -8 4 -8 15 1 8 7
15 8 15 3 0 -5 20 -8 45 -7 25 1 47 -2 50 -6 3 -5 16 -5 30 0 15 6 27 6 30 0
3 -5 12 -7 20 -3 8 3 26 2 40 -1 21 -5 24 -12 23 -44 -1 -20 -6 -40 -12 -44
-7 -5 -6 -8 4 -8 13 0 13 -2 1 -9 -13 -8 -13 -12 0 -27 9 -11 9 -15 2 -10 -7
4 -13 3 -13 -3 0 -5 5 -13 10 -16 8 -5 7 -11 -1 -21 -9 -11 -8 -14 2 -14 9 0
10 -3 4 -8 -15 -10 -15 -72 -1 -72 6 0 4 -5 -4 -10 -8 -5 -11 -10 -6 -10 5 0
2 -8 -5 -17 -8 -9 -9 -14 -3 -10 13 7 27 -17 16 -27 -12 -12 -12 -46 1 -46 8
0 7 -4 -3 -10 -8 -5 -11 -10 -6 -10 5 0 3 -7 -4 -15 -11 -13 -10 -14 5 -9 14
6 16 4 9 -7 -12 -20 -14 -38 -4 -44 14 -8 0 -36 -14 -28 -6 3 -3 -3 7 -14 13
-14 15 -23 7 -28 -8 -5 -8 -10 0 -20 8 -9 8 -15 0 -20 -15 -9 -13 -38 3 -29 9
5 9 4 0 -6 -9 -10 -9 -18 -1 -34 10 -19 10 -20 -5 -8 -14 12 -16 11 -12 -6 3
-16 -1 -19 -18 -14 -12 3 -27 9 -33 13 -6 5 -14 6 -18 2 -9 -10 -36 -13 -36
-4 0 9 -63 7 -78 -3 -7 -4 -12 -2 -12 5 0 8 -4 9 -13 0 -10 -7 -17 -7 -24 0
-8 8 -17 8 -32 0 -16 -9 -21 -9 -21 0 0 8 -7 6 -19 -5 -14 -13 -21 -14 -27 -5
-4 8 -3 10 4 5 7 -4 12 -2 12 3 0 6 -10 11 -21 11 -18 0 -19 2 -9 15 10 12 10
15 0 15 -10 0 -10 3 -1 14 8 10 9 16 1 21 -6 4 -7 12 0 24 6 12 5 22 -3 31
-10 10 -9 11 3 6 8 -4 6 0 -4 8 -15 12 -16 16 -5 16 9 0 15 10 15 25 0 14 -4
25 -9 25 -5 0 -4 7 3 15 10 12 10 15 -1 15 -9 0 -10 3 -3 8 13 9 14 42 1 42
-5 0 -4 7 4 16 10 13 10 17 -2 25 -9 6 -10 12 -4 17 13 9 17 64 4 56 -12 -7
-7 18 6 29 6 6 5 10 -3 14 -10 4 -10 8 0 21 11 13 11 14 -2 7 -13 -8 -13 -7
-1 8 11 14 11 20 0 34 -12 15 -12 16 1 8 13 -8 13 -7 1 8 -7 9 -9 17 -4 17 12
0 11 53 -2 62 -6 5 -4 8 5 8 13 0 13 1 0 10 -8 5 -10 10 -4 10 6 0 11 7 11 15
0 8 -5 15 -11 15 -6 0 -4 5 4 10 8 5 11 10 7 10 -9 0 1 20 9 20 3 0 3 -4 0 -8z
m433 -26 c9 -6 12 -5 8 1 -4 6 4 11 18 11 14 0 22 -5 19 -10 -4 -6 3 -5 15 1
16 9 21 9 21 -1 0 -9 3 -9 8 -2 9 13 52 13 52 -1 0 -5 5 -3 10 5 5 8 10 10 10
4 0 -6 10 -10 23 -10 12 1 27 -2 34 -6 7 -6 14 -4 19 3 5 8 3 9 -6 4 -9 -5
-11 -4 -6 4 5 8 12 9 19 2 7 -5 27 -8 44 -6 18 1 30 -1 27 -6 -3 -5 -10 -7
-15 -4 -5 3 -6 -1 -3 -9 3 -9 10 -13 15 -10 5 3 5 -6 -1 -20 -5 -14 -5 -28 -1
-31 10 -6 9 -24 -2 -42 -5 -8 -3 -13 5 -13 9 0 9 -3 -2 -10 -13 -9 -13 -10 0
-10 12 0 12 -2 1 -9 -8 -5 -9 -11 -3 -15 11 -7 11 -24 -1 -43 -5 -8 -3 -13 5
-13 9 0 9 -3 -2 -10 -13 -9 -13 -10 0 -10 13 0 13 -1 0 -10 -13 -9 -13 -10 0
-10 9 0 11 -3 5 -8 -18 -13 -17 -42 2 -43 17 -1 17 -2 0 -6 -14 -4 -16 -8 -6
-19 9 -11 8 -14 -2 -14 -11 0 -11 -2 1 -10 12 -8 12 -10 1 -10 -10 0 -11 -3
-2 -13 6 -8 8 -17 4 -21 -11 -11 -10 -46 1 -46 6 0 4 -5 -4 -10 -13 -9 -13
-10 0 -10 12 0 12 -2 1 -9 -9 -6 -10 -11 -2 -15 8 -5 8 -13 1 -27 -8 -14 -7
-19 2 -20 10 0 10 -2 -1 -6 -11 -5 -11 -7 0 -14 11 -7 11 -9 1 -9 -8 0 -10 -5
-5 -12 12 -21 10 -85 -4 -85 -7 0 -10 5 -7 11 3 6 0 4 -8 -5 -9 -11 -22 -13
-46 -8 -28 6 -32 4 -28 -10 4 -12 2 -11 -9 3 -8 11 -15 14 -15 7 0 -7 -5 -9
-11 -5 -21 12 -54 10 -67 -6 -8 -8 -11 -10 -8 -3 4 6 2 14 -4 18 -5 3 -10 0
-10 -7 0 -8 -3 -9 -8 -3 -9 13 -42 15 -42 3 0 -7 -5 -6 -13 0 -7 6 -25 9 -40
6 -22 -3 -27 -1 -27 16 0 11 -6 20 -12 20 -8 0 -9 3 -3 8 15 10 16 72 2 72 -8
0 -8 3 1 9 8 4 14 12 14 16 0 4 -6 12 -14 16 -7 5 -8 9 -3 9 15 0 16 40 2 40
-8 0 -7 4 2 9 10 7 12 13 5 23 -9 11 -11 32 -4 41 8 10 6 37 -3 37 -8 0 -8 3
-2 8 15 11 18 42 3 42 -10 0 -10 2 1 9 8 6 10 14 5 22 -12 20 -14 38 -4 44 5
3 7 14 5 25 -2 11 1 20 7 20 7 0 6 6 -2 15 -10 12 -10 15 0 15 9 0 9 4 -1 17
-10 11 -10 14 -1 9 15 -9 16 6 0 22 -9 9 -8 12 8 12 14 0 16 2 6 9 -8 4 -12
17 -11 27 2 11 0 25 -4 32 -5 7 -3 12 3 12 7 0 9 8 5 19 -6 20 8 23 34 7z
m1081 -1 c6 -3 10 -2 10 4 0 7 8 7 23 2 14 -5 30 -5 40 0 9 6 17 6 17 1 0 -5
16 -8 35 -7 19 1 35 -2 35 -8 0 -6 5 -6 13 1 18 14 58 -3 51 -23 -3 -8 -1 -15
5 -15 6 0 11 -5 11 -11 0 -5 -4 -8 -8 -5 -10 6 -9 -45 2 -62 4 -7 2 -20 -6
-29 -9 -12 -9 -15 0 -9 6 4 12 2 12 -3 0 -6 -6 -11 -12 -11 -9 0 -9 -3 -3 -8
14 -9 13 -55 0 -64 -6 -5 -5 -8 4 -8 11 0 11 -3 0 -17 -8 -10 -9 -14 -2 -10 8
5 11 0 10 -13 -1 -11 -6 -20 -12 -20 -5 0 -4 -4 4 -9 9 -6 10 -10 2 -16 -8 -4
-9 -11 -2 -19 11 -13 10 -34 -2 -53 -4 -6 -3 -14 3 -18 5 -3 10 -11 10 -16 0
-6 -6 -7 -12 -3 -9 5 -9 2 1 -9 11 -14 11 -17 0 -17 -10 0 -10 -3 -1 -12 16
-16 15 -31 0 -22 -10 6 -10 4 0 -7 6 -7 12 -17 12 -22 0 -4 -6 -5 -12 -1 -10
6 -10 4 0 -8 9 -12 10 -18 2 -23 -6 -4 -7 -12 -2 -18 10 -15 10 -27 -2 -46 -6
-10 -5 -12 2 -7 7 4 12 3 12 -3 0 -5 -5 -13 -10 -16 -6 -4 -8 -10 -6 -14 3 -4
-1 -8 -9 -8 -8 0 -11 5 -8 11 4 6 -1 5 -10 -3 -11 -9 -17 -10 -17 -2 0 6 -5
11 -11 11 -5 0 -8 -4 -5 -8 3 -5 -1 -9 -9 -9 -8 0 -11 5 -8 11 4 6 0 5 -9 -2
-13 -10 -17 -10 -21 0 -4 10 -8 10 -17 -2 -9 -12 -13 -12 -17 -2 -4 10 -8 10
-21 0 -12 -10 -14 -10 -8 0 4 6 3 12 -3 12 -5 0 -12 -6 -14 -12 -4 -10 -8 -9
-16 2 -10 13 -11 13 -11 0 0 -13 -1 -13 -10 0 -9 13 -11 13 -21 0 -8 -11 -12
-12 -16 -2 -2 6 -9 12 -14 12 -6 0 -7 -5 -4 -10 4 -6 -3 -6 -18 1 l-24 11 1
216 c1 120 -2 225 -7 236 -6 12 -5 16 1 12 17 -10 25 27 8 39 -13 10 -12 13 2
23 9 7 12 10 6 8 -15 -7 -16 44 -2 62 8 9 5 19 -8 34 -11 12 -14 18 -7 15 6
-4 14 -3 18 3 3 5 1 10 -5 10 -6 0 -9 4 -6 8 5 9 81 6 96 -3z m443 -7 c-6 -11
5 -10 29 3 12 6 18 7 14 1 -8 -14 25 -25 38 -12 14 14 46 13 47 -2 0 -10 2
-10 6 0 7 17 23 15 23 -4 0 -8 4 -13 8 -10 5 3 9 -1 9 -9 0 -8 -4 -12 -9 -9
-4 3 -8 0 -8 -5 0 -6 5 -11 10 -11 6 0 10 -5 10 -11 0 -5 -4 -8 -9 -5 -14 9
-7 -28 8 -40 11 -9 12 -12 1 -19 -9 -6 -11 -4 -5 5 5 9 4 11 -4 6 -9 -6 -9
-11 0 -22 6 -8 9 -17 6 -21 -4 -3 -2 -15 4 -26 6 -10 7 -17 2 -14 -5 3 -8 -39
-8 -94 0 -54 3 -99 7 -99 4 0 5 -7 2 -15 -4 -8 -11 -12 -18 -8 -6 4 -5 -1 3
-10 7 -9 10 -17 6 -17 -4 0 -1 -8 6 -17 12 -15 12 -16 -5 -10 -14 6 -16 4 -9
-5 16 -19 16 -118 0 -118 -8 0 -9 -3 -1 -8 6 -4 13 -15 17 -24 4 -13 2 -15
-11 -11 -14 6 -15 4 -5 -8 8 -9 9 -20 3 -29 -6 -8 -10 -10 -10 -5 0 6 -11 10
-25 10 -14 0 -25 -4 -25 -10 0 -5 -5 -3 -10 5 -7 11 -10 11 -10 2 0 -10 -5
-10 -20 -2 -15 8 -20 8 -20 -2 0 -9 -3 -9 -10 2 -9 13 -10 13 -10 0 -1 -11 -4
-10 -15 4 -13 17 -15 17 -15 3 0 -14 -4 -15 -26 -7 -33 13 -37 13 -28 -2 5 -9
2 -9 -9 1 -10 8 -17 9 -17 3 0 -7 -10 -8 -29 -2 -16 4 -33 5 -37 2 -4 -4 -4
-2 -1 5 4 6 1 13 -5 16 -10 3 -9 8 2 22 13 17 13 18 0 10 -13 -7 -13 -6 -2 7
10 12 10 17 1 20 -9 3 -9 9 1 27 9 18 9 22 0 16 -9 -6 -9 -2 -1 14 7 11 8 21
2 21 -5 0 -12 7 -15 16 -3 8 -2 13 3 10 5 -3 11 1 15 9 3 8 0 15 -6 15 -7 0
-6 5 2 15 10 12 10 15 -1 16 -12 0 -12 1 0 6 11 4 11 7 0 13 -10 7 -10 12 2
26 12 16 12 17 -1 9 -13 -8 -13 -7 -1 8 9 11 10 17 2 17 -6 0 -11 7 -11 16 0
8 4 13 9 9 6 -3 8 4 4 17 -3 13 -7 37 -9 53 -2 17 -6 40 -10 53 -4 14 -2 22 5
22 7 0 9 4 6 10 -3 5 -8 19 -10 31 -4 18 -2 19 12 7 15 -12 15 -11 4 10 -7 13
-10 30 -7 38 3 9 1 12 -4 9 -6 -3 -10 -1 -10 4 0 6 5 11 11 11 5 0 8 4 5 8 -3
5 -7 20 -10 34 -4 24 -2 25 40 25 25 0 46 2 48 4 8 7 84 4 79 -3z m262 -8 c-4
-6 5 -9 19 -8 15 1 26 7 26 13 0 6 3 6 8 -1 10 -15 45 -27 36 -13 -4 7 -1 10
7 7 8 -3 22 -1 33 4 13 7 16 7 12 -1 -9 -14 7 -14 21 0 7 7 15 6 26 -5 10 -11
18 -12 22 -6 5 8 12 7 23 -2 12 -10 14 -10 8 0 -4 6 -3 12 3 12 5 0 13 -5 16
-10 4 -6 10 -8 14 -6 4 3 8 -4 8 -15 1 -10 -3 -19 -9 -19 -7 0 -6 -5 1 -14 9
-11 9 -15 -1 -19 -8 -3 -5 -6 7 -7 20 -1 20 -1 1 -12 -19 -11 -19 -11 -1 -24
18 -14 18 -14 -1 -15 -10 0 -13 -3 -6 -6 6 -2 9 -9 6 -14 -3 -6 0 -17 7 -25
10 -12 9 -13 -3 -9 -11 4 -14 0 -12 -17 1 -13 3 -27 3 -31 1 -5 7 -5 14 -1 8
6 8 3 -2 -9 -7 -9 -11 -24 -7 -32 3 -8 1 -15 -5 -15 -6 0 -7 -5 -4 -11 12 -18
12 -69 1 -69 -6 0 -2 -7 8 -15 11 -8 15 -15 8 -15 -7 0 -11 -14 -10 -35 1 -22
5 -32 12 -28 6 4 5 0 -2 -9 -7 -8 -10 -23 -6 -32 4 -10 1 -16 -7 -16 -10 0 -9
-5 4 -17 16 -16 16 -18 -1 -37 -9 -11 -12 -16 -6 -13 7 4 14 0 17 -8 4 -10 1
-12 -11 -8 -15 6 -15 5 -3 -10 9 -12 10 -17 2 -17 -8 0 -9 -5 -2 -19 13 -24 4
-33 -20 -20 -14 7 -19 6 -19 -2 0 -8 -4 -8 -13 -1 -8 7 -18 7 -27 2 -9 -5 -19
-5 -27 2 -10 8 -13 7 -13 -3 0 -10 -3 -10 -12 -1 -9 9 -15 9 -27 -1 -9 -8 -12
-8 -8 -1 4 8 -4 13 -23 16 -17 3 -30 0 -30 -5 0 -5 -7 -4 -15 3 -12 10 -15 10
-15 -1 0 -11 -2 -11 -10 1 -6 10 -10 11 -10 3 0 -10 -6 -10 -26 -1 -15 7 -21
14 -15 16 9 3 8 8 -1 20 -11 14 -10 15 6 9 17 -7 18 -6 3 16 -12 18 -13 27 -4
36 8 8 7 11 -3 11 -13 0 -13 2 0 10 13 9 13 11 0 20 -13 9 -13 10 0 10 13 0
13 1 0 10 -12 8 -12 10 -1 10 10 0 11 3 2 14 -9 11 -9 16 0 21 8 6 7 10 -2 16
-10 6 -11 9 -1 9 6 0 12 5 12 11 0 5 -4 8 -9 5 -12 -8 -8 47 4 56 6 5 6 8 -2
8 -7 0 -10 13 -8 35 2 19 -1 33 -5 30 -5 -3 -6 4 -3 15 3 11 10 20 17 20 8 0
8 2 0 8 -14 9 -26 54 -12 46 6 -4 8 1 3 15 -4 14 -2 21 7 21 8 0 6 4 -5 11
-13 8 -15 15 -7 28 5 10 6 21 2 25 -3 4 0 11 8 16 10 7 11 10 3 10 -8 0 -11 9
-9 23 2 12 -2 28 -8 36 -8 11 -8 13 2 7 7 -4 12 -2 12 4 0 6 4 9 9 5 5 -3 12
-1 16 5 3 5 8 10 11 10 3 0 2 -4 -1 -10z m-3804 -43 c1 -7 1 -15 0 -19 0 -5 3
-8 7 -8 4 0 8 -16 8 -35 0 -19 -5 -35 -11 -35 -7 0 -7 -3 0 -8 6 -4 11 -20 11
-37 0 -16 -5 -33 -11 -37 -7 -5 -7 -8 0 -8 12 0 14 -79 2 -97 -5 -7 -4 -13 1
-13 10 0 10 -60 -1 -77 -5 -8 -4 -13 2 -13 13 0 10 -22 -4 -32 -7 -5 -6 -8 0
-8 12 0 14 -95 2 -106 -3 -4 -3 -12 0 -18 4 -6 7 -30 8 -53 0 -42 -8 -51 -40
-43 -5 1 -15 3 -22 3 -9 0 -9 6 -1 20 6 12 6 17 0 13 -5 -3 -12 3 -15 14 -3
11 0 23 5 27 6 3 8 1 4 -5 -3 -6 -2 -13 3 -16 5 -4 8 2 6 11 -2 10 -4 18 -5
18 -7 0 -7 42 1 51 7 8 6 15 -2 20 -8 5 -10 3 -4 -7 5 -8 4 -10 0 -6 -12 11
-15 38 -4 31 6 -3 8 6 5 22 -3 15 0 35 7 43 9 11 9 13 0 8 -14 -9 -15 31 -1
50 6 7 4 14 -3 19 -8 5 -9 3 -4 -6 6 -9 4 -11 -5 -5 -10 6 -10 11 4 20 15 12
15 13 -1 20 -17 6 -17 7 1 21 13 9 15 14 6 14 -7 0 -10 3 -7 7 4 3 2 12 -4 19
-9 11 -7 15 5 20 15 6 15 8 -1 21 -10 8 -12 12 -5 8 6 -3 12 -2 12 2 0 5 -6
15 -12 22 -8 9 -8 11 -2 8 15 -8 27 20 13 29 -6 3 -8 12 -5 20 3 7 -3 18 -12
24 -15 10 -15 11 0 6 18 -5 33 20 18 29 -16 10 -12 48 4 42 9 -4 13 -1 10 6
-2 7 4 13 16 14 11 1 21 -4 21 -10z m106 1 c4 -7 9 -112 10 -233 2 -121 4
-259 5 -306 3 -93 0 -98 -60 -84 -20 5 -22 8 -12 20 10 11 10 15 1 15 -7 0 -9
5 -6 10 4 6 11 7 17 4 7 -5 8 -2 2 7 -12 20 -16 51 -5 45 5 -3 7 3 4 14 -3 11
-10 17 -17 13 -6 -3 -3 3 8 15 17 19 17 22 2 28 -9 3 -13 10 -10 15 3 5 11 6
17 2 7 -4 7 0 -1 10 -8 9 -11 21 -7 27 3 5 0 10 -7 11 -10 0 -10 2 0 6 6 2 9
9 6 14 -3 6 -1 16 6 24 7 8 7 15 1 19 -6 4 -7 14 -4 23 5 12 3 14 -8 8 -12 -8
-12 -6 0 8 7 9 11 23 8 31 -3 7 -1 18 5 24 8 8 7 13 -5 18 -9 3 -14 10 -11 15
3 5 11 6 17 2 7 -4 7 0 -1 10 -8 9 -11 21 -7 27 4 6 1 18 -7 27 -8 10 -8 14
-1 10 8 -5 11 3 9 25 -2 18 2 39 8 47 8 10 8 13 0 8 -6 -3 -11 1 -11 9 0 9 6
13 15 9 13 -5 13 -3 1 12 -9 11 -10 14 -1 9 6 -4 12 -2 12 3 0 15 17 14 27 -1z
m-409 -70 c-2 -7 3 -12 10 -10 10 2 10 -2 2 -18 -8 -15 -8 -20 1 -20 8 0 8 -4
2 -12 -13 -18 -14 -58 -1 -58 6 0 5 -7 -3 -17 -12 -15 -12 -16 1 -8 13 8 13 7
1 -8 -9 -11 -10 -17 -2 -17 8 0 8 -6 -1 -21 -10 -17 -10 -23 -1 -26 9 -3 9
-11 2 -31 -7 -19 -7 -28 2 -31 8 -2 7 -6 -2 -12 -12 -7 -12 -9 0 -9 11 0 11
-3 1 -15 -9 -10 -9 -15 -1 -15 8 0 8 -6 -1 -21 -10 -17 -10 -23 -1 -26 9 -3 9
-11 2 -31 -7 -19 -7 -28 1 -30 7 -3 7 -9 -2 -20 -11 -13 -11 -14 2 -7 13 8 13
7 1 -8 -9 -11 -10 -17 -2 -17 8 0 8 -6 -1 -21 -10 -17 -10 -23 -1 -26 8 -3 9
-12 3 -27 -6 -16 -5 -28 3 -36 9 -10 9 -11 0 -6 -7 4 -13 2 -13 -3 0 -6 -8
-11 -17 -11 -16 0 -18 12 -18 107 1 60 4 114 8 121 5 6 5 12 0 12 -11 0 -10
321 1 339 7 10 5 12 -3 6 -7 -4 -5 4 4 19 19 28 26 33 23 14z m-110 -57 c7 -4
14 -14 15 -22 2 -8 7 -20 11 -28 6 -10 5 -12 -2 -7 -7 4 -12 1 -12 -8 0 -8 5
-18 10 -21 6 -4 7 -11 4 -17 -12 -19 -13 -58 -1 -58 6 0 2 -7 -9 -16 -10 -8
-14 -13 -8 -10 7 3 15 -1 18 -10 4 -12 2 -15 -9 -10 -12 4 -13 2 -7 -12 5 -9
7 -23 4 -31 -3 -10 0 -11 9 -5 11 6 12 5 3 -7 -7 -8 -12 -68 -12 -154 0 -77
-2 -142 -3 -145 -1 -3 -1 -7 -1 -10 0 -3 -8 -6 -18 -7 -12 -1 -22 7 -26 20
-11 32 -11 129 -1 151 5 10 5 16 0 13 -11 -7 -9 295 2 313 5 8 4 11 -3 6 -12
-7 -11 32 2 52 4 7 4 17 1 22 -7 12 15 13 33 1z m-92 -30 c-3 -5 1 -11 9 -15
11 -4 13 -11 5 -31 -5 -14 -6 -25 -2 -25 9 0 7 -95 -3 -110 -3 -5 -3 -10 2
-10 4 0 8 -80 7 -178 0 -149 -2 -176 -15 -174 -39 9 -43 27 -44 204 -1 108 3
178 9 187 8 11 8 13 0 8 -14 -8 -13 91 1 112 6 10 4 12 -6 7 -8 -4 -3 2 10 13
24 22 36 27 27 12z m1294 -7067 c0 -8 -19 -13 -24 -6 -3 5 1 9 9 9 8 0 15 -2
15 -3z"/>
<path d="M4856 7453 c-6 -14 -5 -15 5 -6 7 7 10 15 7 18 -3 3 -9 -2 -12 -12z"/>
<path d="M3690 9889 c0 -5 5 -7 10 -4 6 3 10 8 10 11 0 2 -4 4 -10 4 -5 0 -10
-5 -10 -11z"/>
<path d="M6835 9850 c-3 -5 -1 -10 4 -10 6 0 11 5 11 10 0 6 -2 10 -4 10 -3 0
-8 -4 -11 -10z"/>
<path d="M2395 2741 c-3 -5 -2 -12 3 -15 5 -3 9 1 9 9 0 17 -3 19 -12 6z"/>
<path d="M8215 450 c-3 -5 -1 -10 4 -10 6 0 11 5 11 10 0 6 -2 10 -4 10 -3 0
-8 -4 -11 -10z"/>
<path d="M3272 204 c10 -10 20 -16 22 -13 3 3 -5 11 -17 18 -21 13 -21 12 -5
-5z"/>
</g>
</svg>
